<svg xmlns="http://www.w3.org/2000/svg" width="554" height="674" fill="none"><path fill="#12AFCB" d="M130.004 674c54.214 0 98.163-9.917 98.163-22.15 0-12.233-43.949-22.15-98.163-22.15-54.215 0-98.164 9.917-98.164 22.15 0 12.233 43.95 22.15 98.164 22.15ZM228.313 340.66c45.398 0 82.2-8.522 82.2-19.034 0-10.512-36.802-19.034-82.2-19.034-45.397 0-82.199 8.522-82.199 19.034 0 10.512 36.802 19.034 82.199 19.034ZM403.633 571.18c68.097 0 123.3-12.661 123.3-28.279s-55.203-28.278-123.3-28.278c-68.096 0-123.299 12.66-123.299 28.278 0 15.618 55.203 28.279 123.299 28.279Z"/><path fill="#FFF7F9" fill-rule="evenodd" d="M266.204 91.49c-1.166 1.735-2.077 3.332-3.218 4.736-1.307 1.605-2.668 3.236-4.269 4.52-3.519 2.815-7.516 3.385-11.709 1.654-5.334-2.2-9.183-5.956-11.315-11.411-.394-1.01-.753-2.028-1.249-3.38-.962.997-1.714 1.747-2.429 2.516-2.461 2.631-5.243 4.795-8.657 6.003-1.139.4-2.342.672-3.537.873-3.9.647-6.276-1.703-7.407-4.13-.405-.876-.703-1.8-1.021-2.633-.943-.344-1.159.401-1.533.801-1.927 2.052-3.72 4.24-5.769 6.154-2.165 2.027-4.736 3.467-7.698 4.016-.72.131-1.447.262-2.175.295-4.351.197-6.819-1.515-8.678-6.183-.384.73-.776 1.257-.948 1.845-1.775 5.928-2.525 11.983-2.499 18.198.051 11.945 3.968 22.685 9.675 32.899 1.433 2.567 2.962 5.106 4.667 7.498 6.491 9.069 15.309 15.073 25.502 19.088 2.914 1.145 6.024 1.946 9.124 2.411 3.964.604 8.001.95 12.007.989 12.312.111 23.895-2.776 34.67-8.916 5.891-3.356 11.289-7.37 15.88-12.335 6.927-7.502 12.827-15.75 16.307-25.53.368-1.037.651-2.104.927-3.17.043-.178-.156-.423-.342-.873-.631.117-1.335.177-2.002.38-2.073.631-3.921.088-5.453-1.279-1.361-1.211-2.642-2.561-3.71-4.04-2.739-3.789-4.966-7.883-6.886-12.161-.481-1.066-.607-2.397-1.966-3.201-.59.773-1.08 1.666-1.799 2.287-1.007.861-2.124 1.652-3.304 2.231-2.046 1.008-4.042.623-5.857-.709-1.8-1.326-3.185-3.054-4.346-4.947-2.51-4.073-4.961-8.192-7.451-12.28-.449-.711-.949-1.369-1.532-2.217Zm-34.267 52.122-.055.005c.108 1.472.099 2.96.352 4.408.431 2.466 3.368 5.16 5.806 5.512 3.745.543 7.735-2.012 8.645-5.707.341-1.401.279-2.905.409-4.36.067-.784.332-1.442 1.178-1.652.786-.192 1.706.414 1.931 1.295.125.475.196.968.211 1.458.235 5.75-2.664 9.909-8.12 11.703-5.125 1.678-10.96-1.102-12.844-6.211-1.232-3.333-.867-6.791-.417-10.214.094-.708 1.085-1.413 1.626-1.138.491.245 1.092.761 1.168 1.233.178 1.193.09 2.442.11 3.668Zm31.89-9.186c-.228-2.825 1.482-4.622 4.659-4.9 3.052-.268 5.393 1.593 5.581 4.442.178 2.695-1.816 5.081-4.433 5.318-2.914.258-5.574-1.973-5.807-4.86Zm-53.71-11.999c-.247-2.045.664-3.922 2.251-4.651 2.711-1.232 6.553.44 7.547 3.285.697 2.005-.183 4.414-1.998 5.439-3.076 1.751-7.363-.492-7.8-4.073Z" clip-rule="evenodd"/><path fill="#F5C2E1" fill-rule="evenodd" d="M292.361 72.778c-3.328.682-5.87-.42-8.15-2.216-2.309-1.815-4.523-3.755-6.8-5.607-.946-.772-1.9-1.55-2.934-2.19a6.43 6.43 0 0 0-3.075-.97c-1.802-.12-3.607-.561-5.36-1.063-2.031-.586-3.868-1.551-4.622-3.48-4.191-.763-8.143-1.467-12.096-2.198-2.53-.465-5.074-.57-7.641-.59-12.24-.089-23.331 3.646-33.445 10.347-8.63 5.72-15.204 13.4-19.819 22.76-.46.932-.597 1.819-.299 2.835.453 1.532.749 3.102 1.195 4.634.686 2.335 1.833 3.183 4.205 3.21 1.997.02 3.951-.349 5.584-1.487 1.891-1.32 3.775-2.737 5.369-4.398 2.293-2.38 4.383-4.964 5.915-7.947a5.738 5.738 0 0 1 1.089-1.45c.46-.455 1.674-.215 1.946.376.256.549.453 1.138.559 1.733.312 1.696.474 3.424.875 5.093.75 3.109 2.669 4.25 5.724 3.455 4.993-1.296 8.578-4.53 11.414-8.698.752-1.109 1.307-2.364 1.971-3.536.241-.418.501-.844.831-1.177.582-.598 1.905-.275 2.125.544.191.701.211 1.45.334 2.171.278 1.699.46 3.418.874 5.079 1.356 5.393 4.728 9.1 9.732 11.255 3.287 1.419 6.447.995 9.257-1.34 2.889-2.403 4.814-5.52 6.417-8.874.367-.772.654-1.6 1.101-2.32.515-.846 1.935-.909 2.556-.127.529.67.933 1.44 1.37 2.179 2.963 4.951 5.874 9.942 8.905 14.853.892 1.449 1.993 2.813 3.187 4.023 1.533 1.563 3.172 1.547 4.924.231 1.423-1.067 2.207-2.599 2.977-4.143.49-.984.907-2.026 1.5-2.947.668-1.032 2.186-.8 2.646.351.223.566.344 1.182.506 1.773 1.804 6.764 5.263 12.682 9.165 18.385.342.501.772.953 1.194 1.399 2.288 2.384 5.221 2.566 7.822.5.867-.689.989-1.673 1.028-2.659.164-4.194.141-8.381-.615-12.521-1.543-8.502-5.029-16.215-9.95-23.21-2.874-4.109-6.198-7.897-9.491-12.038Z" clip-rule="evenodd"/><path fill="#FF92CD" fill-rule="evenodd" d="M249.942 181.359c-8.222.309-16.126.109-23.965-1.765-1.925 3.034-3.063 6.283-4.468 9.39-7.246 16.031-13.534 32.418-17.953 49.467 1.198 2.395 3.434 3.212 5.614 3.934 6.299 2.094 12.739 3.272 19.436 2.852 6.331-.4 12.72-.389 18.888-2.054 5.767-1.551 11.475-3.335 17.164-5.175 1.596-.518 3.066-1.504 4.524-2.384 1.111-.672 1.267-1.386.742-2.483-.264-.556-.593-1.072-.904-1.603-4.52-7.79-7.926-16.098-10.953-24.56-2.651-7.41-5.173-14.871-7.044-22.535-.242-.936-.642-1.832-1.081-3.084Z" clip-rule="evenodd"/><path fill="#FFDBEE" fill-rule="evenodd" d="M280.588 250.27c-1.199-2.591-5.462-9.144-8.182-12.584-.457.216-.999.411-1.478.706-2.704 1.702-5.609 2.928-8.637 3.918-7.425 2.438-14.881 4.738-22.697 5.452-6.187.564-12.402 1.025-18.605.51-5.861-.484-11.51-1.967-16.819-4.597-.52-.256-1.093-.396-1.792-.639-1.523 4.337-1.825 8.549-1.216 12.861.189 1.347.92 2.31 2.104 2.805 1.341.56 2.734 1.074 4.153 1.376 5.863 1.263 11.793 1.847 17.786 1.585 4.629-.203 9.25-.504 13.873-.777 9.302-.55 18.315-2.657 27.195-5.351 4.189-1.272 8.293-2.832 12.426-4.297.665-.217 1.267-.634 1.889-.968Z" clip-rule="evenodd"/><path fill="#F5C2E1" fill-rule="evenodd" d="M266.951 45.986c2.37.652 4.81 1.32 7.442 2.037 6.247-4.66 12-9.893 15.795-16.981 2.745-5.123 3.103-10.552 1.376-16.086-.363-1.145-.985-2.243-1.658-3.252-.703-1.064-1.94-1.148-2.822-.198-.908.98-1.782 2.048-2.419 3.21-1 1.822-1.788 3.768-2.657 5.657-.36.777-.595 1.644-1.095 2.313-.304.401-1.057.745-1.529.66-.472-.084-1.009-.669-1.219-1.165-.278-.66-.225-1.45-.375-2.169-.556-2.646-1.091-5.293-1.715-7.92-.343-1.442-.969-2.778-2.244-4.044-.368.476-.841.848-.987 1.322-.458 1.529-.788 3.09-1.168 4.634-.144.586-.194 1.235-.476 1.747-.208.38-.745.841-1.101.818-.53-.03-1.309-.323-1.514-.743-.596-1.198-.916-2.529-1.418-3.782-.255-.634-.672-1.193-1.117-1.96-1.157 2.037-1.163 4.037-1.377 5.955a41.658 41.658 0 0 0-.233 5.897c.255 8.015.862 15.983 2.511 24.05Z" clip-rule="evenodd"/><path fill="#FFF7F9" fill-rule="evenodd" d="M326.753 188.781c-.515-1.8-1.736-2.439-2.847-3.178-.607-.404-1.289-.704-1.857-1.153-.82-.655-.664-2.035.291-2.471.767-.344 1.616-.519 2.416-.796.915-.314 1.845-.614 2.727-1.01.726-.327 1.126-.939.911-1.786-.196-.779-.689-1.338-1.476-1.448-.59-.083-1.205.061-1.802.063-.765.001-1.454-.194-1.777-.998-.298-.743.042-1.505.946-2.161.298-.212.649-.35.946-.561 2.617-1.843 2.995-3.036 2.096-6.766-1.479-.346-2.799.412-4.08.956-2.015.858-3.929 1.961-5.911 2.894-.934.441-1.552 1.112-2.079 1.979-.403.661-1.058 1.019-1.874.791-.802-.228-1.206-.893-1.281-1.631-.072-.696.167-1.422.177-2.139.01-1.088.053-2.2-.13-3.274-.171-1.005-.891-1.723-1.802-2.196-1.098-.571-2.246-.205-2.717.952-.277.674-.523 1.394-.602 2.115a236.285 236.285 0 0 0-.686 7.699c-.062.854.121 1.738-.019 2.577-.773 4.695.399 9.015 2.462 13.149 2.112 4.25 5.523 6.109 10.469 5.784.89-1.42.189-2.821-.163-4.205-.177-.703-.586-1.353-.756-2.056-.257-1.041.763-2.014 1.753-1.688.684.23 1.312.646 1.992.905 1.524.588 3.033.61 4.673-.347ZM303.422 150.433c1.246.3 1.951.634 2.652.61 5.359-.187 10.491-1.298 14.449-5.226 4.27-4.233 6.135-9.402 4.674-15.468-.739-3.054-2.855-4.798-5.824-5.462-2.36-.527-4.073.47-4.858 2.746-.521 1.512-.922 3.058-1.443 4.57-1.871 5.373-4.523 10.341-7.651 15.064-.594.9-1.152 1.819-1.999 3.166ZM164.777 143.347c-1.263.22-1.533 1.075-1.554 1.933-.031 1.468.071 2.942.192 4.406.173 2.064-.047 2.958-.978 3.146-1.391.279-1.848-.831-2.477-1.739-.622-.894-1.285-1.778-2.07-2.527-.508-.481-1.33-.883-1.967-.282-.377.358-.677 1.096-.599 1.595.192 1.193.605 2.355.988 3.506.188.575.691 1.085.74 1.65.045.523-.17 1.282-.552 1.57-.368.287-1.233.344-1.62.093-1.116-.718-2.063-1.777-3.551-1.603-.559.062-1.091.291-1.534.408-.254.987.268 1.384.744 1.713.491.343 1.095.522 1.618.827 1.518.891 1.582 2.227.146 3.112-.619.383-1.323.638-1.911 1.054-.476.337-.843.82-1.464 1.449.596.447.991.909 1.491 1.096 2.553.961 5.213 1.129 7.912.964 1.446-.087 2.892-.187 4.341-.14 2.961.096 5.551-.608 7.402-3.131 1.807-2.464 3.673-4.883 5.414-7.391.767-1.102 1.29-2.397 1.124-3.809-.053-.438-.337-1.077-.665-1.193-.492-.174-1.342-.202-1.64.101-1.008 1.036-1.873 2.223-2.732 3.402-.637.882-1.076 2.094-2.469 1.685-1.143-.336-1.136-1.459-1.249-2.433-.302-2.693-.721-5.364-1.91-7.83-.309-.608-.806-1.133-1.17-1.632ZM179.309 124.404c-.088-1.86-.115-3.079-.204-4.286-.521-6.796-.118-13.52 1.395-20.165.078-.356.162-.72.276-1.073.848-2.638-.61-4.515-2.585-5.94-1.63-1.178-4.54-1.242-6.441.513-2.356 2.174-3.813 4.766-3.871 8.04-.145 7.484 2.615 13.917 7.093 19.703.591.763 1.393 1.37 2.154 1.981.437.367 1.002.578 2.183 1.227Z" clip-rule="evenodd"/><path fill="#FF92CD" fill-rule="evenodd" d="M160.479 263.197c-.718 1.857-.534 3.611.137 5.168 2.478 5.816 6.282 10.473 12.017 13.318.21.103.472.084.832.148.861-1.053 1.217-2.258.733-3.633-1.708-4.799-4.042-9.228-7.939-12.595-1.173-1.015-2.648-1.698-4.055-2.394-.455-.232-1.135-.021-1.725-.012ZM267.289 301.4c-.586 1.391-1.268 2.81-1.798 4.288-.945 2.652-1.812 5.334-2.692 8.009-.466 1.424-.623 2.874-.236 4.354.27 1.032 1.24 1.557 2.252 1.236 1.216-.385 2.116-1.195 2.856-2.183 2.52-3.359 3.611-7.145 3.44-11.363-.104-2.448-1.13-3.93-3.822-4.341Z" clip-rule="evenodd"/><path fill="#FFD152" fill-rule="evenodd" d="M262.281 53.567c1.493-1.718 1.727-3.349 1.561-5.147-.24-2.6-.922-5.068-1.736-7.526-1.446-4.356-3.475-8.415-6.231-12.056a20.13 20.13 0 0 0-3.865-3.874c-1.788-1.348-3.393-.871-4.62 1.065-1.427 2.246-1.927 4.81-2.015 7.391-.171 5.05.207 10.089.922 15.095.204 1.444.737 2.549 2.297 2.966 4.481 1.197 8.976 2.21 13.687 2.086ZM275.803 59.462c3.206 2.667 6.371 5.344 9.587 7.961.85.688 1.791 1.299 2.772 1.78 1.811.897 3.26.474 4.467-1.173.291-.394.508-.838.741-1.27a92.581 92.581 0 0 0 6.688-15.953c.54-1.739 1.145-3.524.249-5.31-1.223-.758-2.454-.386-3.64-.256-3.462.37-15.106 3.57-18.581 5.098-.324 1.357-.683 2.9-1.071 4.437-.374 1.522-.783 3.054-1.212 4.686ZM265.091 56.628c1.87 1.236 3.52 1.647 5.222 1.83 1.576.163 2.359-.252 2.852-1.685.435-1.26.657-2.596.962-3.833-1.504-2.112-3.526-2.77-5.834-3.152-1.67 1.969-1.844 4.522-3.202 6.84Z" clip-rule="evenodd"/><path fill="#F8CFDD" fill-rule="evenodd" d="M281.43 135.8c6.539-.036 11.526 5.881 10.947 12.281-.261 2.869-1.63 5.237-3.617 6.865-1.677 1.682-3.957 2.812-6.21 3.169-5.216.822-9.985-4.389-11.047-9.095-1.434-6.363 3.201-13.184 9.927-13.22ZM187.392 129.684a8.939 8.939 0 0 1 .594-2.97c.899-4.887 5.232-8.254 10.233-8.029 5.559.254 11.179 3.809 11.292 9.982.13 6.684-6.259 11.481-12.534 10.845-4.607-.451-9.726-4.843-9.585-9.828Z" clip-rule="evenodd"/><path fill="#703F59" fill-rule="evenodd" d="M254.216 183.615c2.171.604 3.374 1.834 4.658 2.938 3.725 3.198 7.593 6.167 11.923 8.526 3.411 1.86 6.996 2.871 10.85 2.909 7.797.075 15.327-1.031 22.152-5.206.506-.304 1.06-.52 1.684-.819.676.869 1.228 1.663 1.872 2.38 2.719 3.04 5.968 5.066 10.143 5.22.607.025 1.227.042 1.826-.037 2.325-.327 3.475-1.513 3.707-3.839.071-.728.003-1.474.003-2.414.663-.154 1.339-.317 2.016-.472.594-.135 1.199-.229 1.777-.412 3.635-1.14 4.405-3.225 2.359-6.378-.4-.616-.892-1.162-1.453-1.892.6-.444 1.15-.906 1.748-1.28 2.41-1.526 2.698-3.196 1.777-6.075-.29-.905-.959-1.69-1.547-2.685.303-.801.696-1.694.975-2.62.548-1.808.482-3.656.069-5.478-.451-1.98-1.659-2.901-3.679-2.857-1.998.043-3.814.781-5.588 1.607-1.661.762-3.29 1.577-4.834 2.323-1.306-.465-1.177-1.632-1.558-2.474-.907-2.017-2.298-3.45-4.469-4.04-2.546-.689-4.644.168-5.744 2.608-.55 1.212-.986 2.557-1.111 3.878-.353 3.794-.664 7.599-.71 11.406-.04 3.42.295 6.84.478 10.552-3.38 2.615-7.4 4.288-11.788 4.922-3.254.466-6.549.654-9.838.82-2.971.15-5.786-.603-8.483-1.919-4.326-2.107-8.094-5.041-11.792-8.065-1.502-1.229-2.862-2.623-4.473-4.111 1.316-.904 2.959-.78 4.373-1.306 1.482-.545 3.05-.864 4.557-1.362a70.702 70.702 0 0 0 4.805-1.773c1.464-.6 2.91-1.261 4.338-1.963a77.704 77.704 0 0 0 4.216-2.221 73.489 73.489 0 0 0 4.072-2.47 67.535 67.535 0 0 0 3.891-2.758 68.131 68.131 0 0 0 3.713-3.005 92.311 92.311 0 0 0 3.774-3.5 73.982 73.982 0 0 0 3.313-3.438c1.06-1.173 2.046-2.418 3.005-3.562 7.958 2.168 14.979.37 20.993-4.699 5.204-4.385 7.302-10.336 6.513-17.189-.704-6.06-5.142-9.878-11.248-9.825-.472.007-.939-.008-1.669-.01-.049-.67-.161-1.244-.127-1.815.716-10.382-1.882-19.992-6.567-29.152-3.224-6.294-7.382-11.887-12.103-17.087-.658-.724-1.302-1.448-2.097-2.329.388-.87.718-1.765 1.157-2.605 2.518-4.796 4.705-9.736 6.418-14.88a42.874 42.874 0 0 0 1.337-4.976 9.017 9.017 0 0 0 .083-2.932c-.32-2.453-1.61-3.733-4.086-3.95a12.695 12.695 0 0 0-3.636.193c-3.457.719-6.891 1.57-10.343 2.359-.458.104-.934.146-1.89.287.685-.886 1.09-1.428 1.51-1.957 2.124-2.69 4.466-5.243 6.341-8.097 4.319-6.572 5.064-13.735 2.596-21.186-.491-1.48-1.328-2.94-2.314-4.144-1.984-2.407-4.799-2.494-7.036-.307-1.037 1.017-1.892 2.245-2.772 3.419-.507.669-.91 1.422-1.532 2.422-.411-.58-.747-.899-.879-1.282-.449-1.272-.701-2.629-1.264-3.85-.605-1.33-1.316-2.667-2.245-3.777-1.937-2.32-3.994-2.132-5.66.363-.4.598-.713 1.267-1.192 2.123-.543-.577-.909-1.02-1.325-1.39-1.94-1.7-3.914-1.316-4.998 1.045-.509 1.104-.949 2.308-1.097 3.505-.378 3.172-.721 6.354-.806 9.546-.067 2.573.263 5.166.404 7.745.027.56-.001 1.123-.004 2.4-.945-1.228-1.438-1.872-1.936-2.509-1.206-1.546-2.346-3.16-3.655-4.599-.809-.894-1.825-1.66-2.87-2.257-2.947-1.697-6.072-.996-8.08 1.75-2.027 2.78-2.748 6.013-2.903 9.378-.266 5.549.023 11.078 1.045 16.552.068.353.011.722.019 1.297-.694.114-1.38.327-2.062.321-13.01-.06-24.716 4.181-35.394 11.337-7.406 4.962-13.363 11.48-17.879 19.238-1.543 2.647-2.774 5.475-4.157 8.215-.376.744-.781 1.469-1.241 2.31-.732-.599-1.267-1.071-1.841-1.506-3.657-2.746-7.975-2.574-11.364.498-2.645 2.4-4.204 5.392-4.601 8.971-.3 2.717-.145 5.393.545 8.057.991 3.835 2.347 7.517 4.377 10.917 3.006 5.054 4.966 6.747 10.5 9.024.318 1.015.695 2.173 1.052 3.34 3.3 10.827 8.28 20.773 15.413 29.563 1.23 1.516 2.57 2.995 4.046 4.261 5.609 4.798 11.606 9.02 18.478 11.823.674.273 1.318.625 1.968.955.094.05.133.201.345.536-.286.365-.576.857-.979 1.231-3.52 3.27-7.304 6.168-11.754 8.034-6.298 2.642-12.697 3.249-19.27.916-4.397-1.562-8.006-4.221-10.873-7.854-2.507-3.175-4.824-6.512-7.174-9.811-.852-1.193-1.647-2.46-1.62-4.16 3.521-2.969 6.345-6.624 8.659-10.696 1.126-1.985 1.687-4.09 1.198-6.383-.522-2.459-2.859-4.09-5.156-3.569-.581.135-1.151.415-1.664.72-.626.376-1.189.846-1.954 1.408a220.86 220.86 0 0 1-.904-1.982c-.749-1.678-1.299-3.489-2.293-5.001-1.706-2.583-4.567-2.539-6.352.028-.748 1.073-1.151 2.394-1.762 3.723-.786-.201-1.586-.493-2.415-.6-2.457-.337-4.29.928-4.872 3.399-.249 1.064-.32 2.171-.482 3.369-.93.202-1.902.323-2.81.636-2.495.858-3.38 2.811-2.386 5.257.315.783.832 1.482 1.278 2.249-.579.828-1.248 1.566-1.671 2.425-.876 1.784-.307 3.756 1.358 4.846.708.46 1.505.899 2.31 1.064 2.144.431 4.35 1.116 6.472.959 3.602-.267 7 .667 10.163.945 3.189 4.416 6.101 8.663 9.238 12.746 4.705 6.121 10.911 9.78 18.563 10.715 5.057.614 10.014-.034 14.698-2.029 2.568-1.096 4.959-2.606 7.417-3.96.722-.397 1.396-.875 2.074-1.297.755.905.106 1.536-.141 2.143-2.316 5.561-4.71 11.085-7.019 16.644-5.046 12.176-8.745 24.807-12.231 37.499-1.107 4.039-1.686 8.166-1.387 12.417.291 4.132 2.396 6.579 6.205 7.7 1.712.505 3.449.959 5.272 1.462-7.027 8.878-21.421 16.638-30.961 16.032-.297-.82-.641-1.72-.944-2.624-1.753-5.21-4.331-9.917-8.356-13.702-1.061-.995-2.322-1.786-3.529-2.609-.498-.342-1.085-.579-1.656-.775-3.586-1.222-6.799-.289-6.89 4.692-.034 1.897.361 3.678 1.125 5.376 2.479 5.528 6.235 9.993 11.331 13.222 1.218.773 2.654 1.207 4.025 1.695 1.25.454 2.466.259 3.309-.842.602-.788 1.323-.912 2.222-.978 7.841-.56 14.974-3.187 21.521-7.538a66.826 66.826 0 0 0 13.061-11.338c13.441.822 26.775-.194 40.098-2.205 1.253.875 1.877 2.176 2.309 3.611 1.053 3.535 2.065 7.081 3.186 10.59 1.876 5.854 3.835 11.687 5.746 17.53.269.816.476 1.649.75 2.632-.774 1.005-1.547 2.023-1.57 3.499-.013 1.053-.631 2.095-.993 3.139-1.035 3.024-2.092 6.042-3.113 9.065a11.789 11.789 0 0 0-.461 5.83c.678 3.914 3.846 5.595 7.33 3.723 1.257-.668 2.486-1.643 3.355-2.774 3.54-4.592 4.936-9.803 3.924-15.615-.314-1.802-1.067-3.353-2.717-4.143-1.514-.729-2.024-1.99-2.498-3.428-2.804-8.528-5.879-16.966-8.201-25.656-.787-2.945-1.854-5.82-2.852-8.903.621-.243 1.145-.492 1.696-.652 4.335-1.269 8.707-2.407 12.997-3.805 3.36-1.091 6.622-2.483 9.912-3.772a7.638 7.638 0 0 0 1.597-.87c.761-.533 1.041-1.438.632-2.285-.427-.88-.973-1.696-1.514-2.519-2.617-4.009-5.254-8.01-7.878-12.018-6.164-9.416-10.63-19.666-14.31-30.27-2.258-6.498-4.178-13.12-6.246-19.689-.163-.423-.234-.902-.447-1.917Zm11.996-92.134c.584.848 1.091 1.505 1.519 2.217 2.49 4.089 4.941 8.201 7.452 12.281 1.168 1.892 2.547 3.622 4.348 4.948 1.815 1.339 3.81 1.717 5.856.71 1.18-.586 2.297-1.37 3.304-2.231.72-.614 1.21-1.514 1.799-2.287 1.359.804 1.485 2.135 1.967 3.201 1.927 4.271 4.147 8.373 6.887 12.162 1.068 1.479 2.356 2.829 3.711 4.041 1.532 1.367 3.38 1.91 5.453 1.28.667-.204 1.371-.263 2.002-.38.186.449.392.693.342.872-.276 1.066-.551 2.139-.927 3.171-3.478 9.779-9.377 18.025-16.304 25.527-4.591 4.964-9.988 8.978-15.879 12.333-10.774 6.138-22.357 9.024-34.669 8.911a85.522 85.522 0 0 1-12.008-.991c-3.093-.472-6.21-1.266-9.123-2.411-10.195-4.017-19.006-10.023-25.506-19.091-1.712-2.385-3.233-4.925-4.667-7.499-5.709-10.214-9.628-20.954-9.68-32.9-.026-6.208.723-12.262 2.497-18.197.172-.588.564-1.108.948-1.845 1.859 4.669 4.335 6.38 8.679 6.184.727-.033 1.454-.164 2.175-.294 2.969-.55 5.539-1.99 7.698-4.016 2.048-1.913 3.84-4.101 5.768-6.153.373-.399.59-1.145 1.532-.8.319.832.616 1.757 1.022 2.632 1.131 2.428 3.507 4.778 7.408 4.132 1.195-.201 2.392-.465 3.536-.873 3.415-1.207 6.196-3.37 8.657-6.002.722-.77 1.466-1.519 2.428-2.516.496 1.345.856 2.371 1.25 3.38 2.133 5.456 5.983 9.219 11.316 11.413 4.194 1.731 8.184 1.162 11.709-1.653 1.602-1.283 2.963-2.907 4.269-4.52 1.154-1.41 2.066-3.001 3.231-4.736Zm26.156-18.708c3.293 4.135 6.617 7.923 9.504 12.025 4.93 6.995 8.41 14.701 9.954 23.21.75 4.141.781 8.334.616 12.522-.038.985-.167 1.97-1.027 2.658-2.601 2.066-5.527 1.883-7.823-.501-.421-.439-.851-.892-1.194-1.399-3.896-5.704-7.362-11.622-9.167-18.386-.162-.591-.277-1.207-.506-1.773-.46-1.151-1.985-1.382-2.646-.351-.593.921-1.01 1.962-1.5 2.946-.769 1.545-1.56 3.077-2.976 4.143-1.752 1.315-3.391 1.332-4.925-.232a22.85 22.85 0 0 1-3.188-4.023c-3.024-4.912-5.942-9.902-8.907-14.854-.443-.739-.841-1.51-1.37-2.179-.62-.782-2.034-.72-2.555.126-.448.721-.727 1.549-1.101 2.32-1.602 3.353-3.527 6.478-6.416 8.874-2.81 2.335-5.97 2.751-9.258 1.339-5.003-2.156-8.384-5.863-9.733-11.257-.421-1.66-.597-3.387-.875-5.078-.115-.721-.143-1.47-.333-2.172-.22-.811-1.544-1.134-2.126-.544-.329.34-.59.76-.831 1.177-.664 1.172-1.218 2.427-1.971 3.535-2.841 4.175-6.426 7.402-11.412 8.697-3.056.795-4.975-.347-5.725-3.456-.401-1.668-.564-3.403-.876-5.092a7.442 7.442 0 0 0-.558-1.734c-.273-.59-1.487-.83-1.947-.375a5.708 5.708 0 0 0-1.088 1.449c-1.532 2.983-3.622 5.573-5.915 7.946-1.595 1.655-3.478 3.071-5.369 4.397-1.633 1.138-3.587 1.508-5.583 1.487-2.372-.028-3.512-.876-4.206-3.21-.453-1.532-.749-3.103-1.196-4.634-.297-1.017-.161-1.904.299-2.836 4.607-9.358 11.18-17.037 19.817-22.757 10.107-6.699 21.204-10.433 33.444-10.343 2.573.02 5.112.127 7.641.592 3.947.732 7.905 1.435 12.097 2.198.754 1.93 2.591 2.903 4.622 3.482 1.747.502 3.552.944 5.361 1.062 1.166.075 2.157.402 3.074.972 1.035.64 1.989 1.418 2.935 2.19 2.278 1.859 4.492 3.793 6.801 5.607 2.268 1.811 4.809 2.914 8.138 2.232Zm-42.407 108.575c.44 1.251.84 2.148 1.069 3.092 1.872 7.664 4.395 15.125 7.047 22.535 3.028 8.462 6.441 16.763 10.957 24.561.31.531.64 1.054.903 1.603.526 1.097.37 1.811-.742 2.482-1.464.881-2.928 1.866-4.523 2.384-5.69 1.832-11.398 3.616-17.164 5.173-6.168 1.664-12.557 1.653-18.887 2.052-6.698.419-13.131-.761-19.437-2.855-2.181-.722-4.416-1.532-5.615-3.934 4.417-17.048 10.703-33.435 17.947-49.464 1.405-3.107 2.542-6.356 4.467-9.39 7.86 1.867 15.757 2.068 23.978 1.761Zm30.656 68.913c-.622.334-1.224.75-1.887.989-4.133 1.464-8.237 3.024-12.425 4.295-8.88 2.693-17.894 4.799-27.196 5.348-4.623.272-9.244.572-13.872.775-5.994.261-11.932-.323-17.787-1.588-1.42-.308-2.806-.816-4.154-1.376-1.19-.494-1.915-1.458-2.104-2.805-.61-4.312-.309-8.531 1.214-12.86.7.243 1.273.382 1.792.639 5.317 2.63 10.959 4.114 16.82 4.599 6.203.508 12.419.055 18.605-.508 7.817-.713 15.273-3.012 22.698-5.45 3.026-.996 5.933-2.214 8.636-3.916.479-.302 1.02-.497 1.478-.706 2.726 3.419 6.983 9.973 8.182 12.564ZM266.955 45.979c-1.651-8.067-2.258-16.035-2.528-24.035-.068-1.96.016-3.944.233-5.897.214-1.917.219-3.918 1.376-5.954.446.767.863 1.332 1.117 1.96.502 1.246.83 2.576 1.419 3.781.205.42.984.713 1.514.744.364.022.893-.438 1.101-.818.282-.512.332-1.161.476-1.747.379-1.551.709-3.112 1.167-4.634.139-.473.619-.845.987-1.322 1.282 1.267 1.902 2.603 2.244 4.044.625 2.627 1.16 5.275 1.717 7.921.15.719.104 1.508.375 2.169.21.496.747 1.08 1.219 1.165.472.084 1.225-.259 1.529-.66.5-.662.735-1.535 1.095-2.313.875-1.896 1.664-3.835 2.656-5.655.636-1.17 1.518-2.232 2.419-3.21.881-.957 2.118-.867 2.822.197.673 1.01 1.302 2.107 1.658 3.252 1.728 5.535 1.37 10.964-1.373 16.086-3.789 7.08-9.541 12.32-15.794 16.979a1529.12 1529.12 0 0 0-7.429-2.053Zm59.821 142.8c-1.632.956-3.149.942-4.687.347-.679-.259-1.302-.683-1.992-.905-.99-.327-2.003.646-1.753 1.687.17.704.58 1.354.756 2.056.353 1.385 1.054 2.792.164 4.205-4.946.325-8.35-1.535-10.47-5.785-2.063-4.134-3.236-8.454-2.463-13.149.14-.838-.051-1.722.019-2.576.193-2.569.414-5.139.684-7.699.079-.722.325-1.442.602-2.115.471-1.157 1.618-1.523 2.717-.952.911.473 1.631 1.198 1.802 2.196.183 1.067.14 2.179.13 3.274-.01.717-.248 1.443-.176 2.139.075.739.479 1.41 1.281 1.632.816.227 1.471-.13 1.874-.792.527-.867 1.145-1.537 2.079-1.978 1.988-.94 3.895-2.036 5.911-2.894 1.287-.544 2.608-1.302 4.079-.954.907 3.728.522 4.922-2.094 6.764-.298.212-.649.35-.946.562-.911.656-1.244 1.425-.946 2.161.323.804 1.019.998 1.776.998.605.004 1.22-.147 1.803-.064.793.11 1.287.67 1.476 1.449.208.847-.191 1.459-.911 1.786-.882.395-1.812.696-2.727 1.009-.8.277-1.65.445-2.416.797-.956.428-1.118 1.816-.291 2.47.569.449 1.251.749 1.858 1.154 1.124.737 2.339 1.37 2.861 3.177Zm-64.49-135.22c-4.711.124-9.206-.89-13.687-2.088-1.56-.417-2.087-1.522-2.297-2.966-.717-5.006-1.095-10.044-.924-15.095.088-2.581.58-5.144 2.013-7.39 1.228-1.93 2.832-2.413 4.621-1.065a19.96 19.96 0 0 1 3.865 3.874c2.757 3.648 4.787 7.701 6.233 12.056.814 2.46 1.496 4.928 1.736 7.527.168 1.798-.067 3.43-1.56 5.147Zm13.523 5.895c.429-1.638.838-3.163 1.225-4.693.388-1.538.74-3.08 1.071-4.437 3.467-1.527 15.111-4.726 18.58-5.095 1.187-.123 2.417-.502 3.641.256.895 1.78.29 3.571-.249 5.31a92.102 92.102 0 0 1-6.687 15.953c-.232.43-.45.875-.74 1.268-1.213 1.655-2.663 2.07-4.467 1.173a14.513 14.513 0 0 1-2.772-1.78c-3.223-2.61-6.396-5.287-9.602-7.955Zm27.63 90.974c.846-1.347 1.404-2.265 1.998-3.165 3.128-4.723 5.786-9.691 7.649-15.063.522-1.505.922-3.058 1.443-4.57.785-2.275 2.498-3.272 4.858-2.745 2.969.664 5.085 2.409 5.825 5.462 1.461 6.06-.404 11.229-4.672 15.467-3.959 3.921-9.09 5.038-14.449 5.224-.701.024-1.406-.309-2.652-.61Zm-138.648-7.103c.364.506.868 1.03 1.164 1.654 1.19 2.466 1.609 5.136 1.911 7.829.107.982.099 2.098 1.25 2.434 1.393.409 1.832-.802 2.469-1.685.851-1.178 1.723-2.366 2.731-3.402.297-.309 1.154-.282 1.64-.1.329.123.619.761.665 1.193.166 1.405-.35 2.699-1.124 3.809-1.747 2.508-3.606 4.926-5.412 7.389-1.858 2.524-4.441 3.227-7.402 3.131-1.443-.048-2.895.053-4.341.139-2.699.165-5.36-.003-7.912-.965-.501-.187-.896-.649-1.492-1.096.621-.628.988-1.119 1.464-1.449.595-.416 1.292-.671 1.911-1.053 1.436-.886 1.365-2.221-.146-3.112-.523-.305-1.127-.485-1.618-.827-.476-.33-.999-.726-.745-1.713.443-.124.976-.346 1.534-.409 1.489-.173 2.429.887 3.552 1.604.387.252 1.252.195 1.62-.092.374-.295.597-1.048.551-1.571-.048-.565-.551-1.075-.74-1.65-.383-1.15-.796-2.313-.988-3.505-.078-.5.222-1.238.599-1.595.636-.609 1.458-.207 1.967.282.777.742 1.441 1.633 2.07 2.527.629.901 1.087 2.017 2.477 1.739.932-.188 1.151-1.082.978-3.146-.122-1.464-.223-2.937-.192-4.406.018-.879.296-1.734 1.559-1.954Zm14.53-18.941c-1.181-.642-1.746-.86-2.196-1.219-.761-.611-1.564-1.218-2.155-1.981-4.485-5.779-7.24-12.22-7.096-19.703.065-3.275 1.514-5.873 3.871-8.04 1.9-1.755 4.818-1.69 6.441-.513 1.974 1.426 3.433 3.296 2.585 5.941-.113.353-.191.71-.275 1.073-1.506 6.651-1.907 13.375-1.393 20.164.102 1.199.129 2.411.218 4.278Zm-18.814 138.788c.584-.008 1.263-.22 1.725.012 1.407.696 2.882 1.38 4.055 2.394 3.898 3.367 6.233 7.797 7.942 12.597.49 1.374.127 2.579-.734 3.632-.365-.057-.629-.044-.831-.149-5.736-2.844-9.54-7.502-12.019-13.318-.664-1.558-.856-3.312-.138-5.168Zm106.817 38.215c2.692.404 3.719 1.893 3.823 4.341.172 4.218-.926 8.004-3.438 11.362-.74.995-1.64 1.798-2.856 2.183-1.012.321-1.981-.197-2.253-1.236-.38-1.481-.229-2.93.236-4.354.88-2.675 1.746-5.357 2.691-8.009.531-1.471 1.212-2.896 1.797-4.287ZM265.097 56.62c1.359-2.318 1.532-4.87 3.208-6.84 2.308.376 4.331 1.033 5.835 3.153-.304 1.244-.526 2.572-.962 3.832-.492 1.433-1.282 1.85-2.851 1.685-1.709-.175-3.359-.593-5.23-1.83Z" clip-rule="evenodd"/><path fill="#703F59" fill-rule="evenodd" d="M231.936 143.612c-.021-1.226.061-2.474-.118-3.675-.069-.472-.677-.988-1.168-1.233-.541-.275-1.532.43-1.626 1.139-.45 3.422-.808 6.88.417 10.213 1.884 5.109 7.72 7.897 12.844 6.211 5.463-1.795 8.355-5.953 8.12-11.703a7.412 7.412 0 0 0-.212-1.458c-.224-.881-1.144-1.48-1.93-1.295-.854.204-1.111.868-1.178 1.652-.13 1.455-.061 2.959-.41 4.36-.91 3.695-4.899 6.251-8.644 5.708-2.431-.353-5.368-3.047-5.806-5.513-.252-1.441-.244-2.936-.352-4.408.028.005.049.003.063.002ZM263.826 134.427c.233 2.887 2.893 5.118 5.8 4.86 2.617-.236 4.61-2.623 4.433-5.318-.188-2.849-2.521-4.704-5.581-4.441-3.17.277-4.88 2.074-4.652 4.899ZM210.116 122.426c.43 3.582 4.717 5.825 7.8 4.08 1.808-1.025 2.695-3.434 1.998-5.439-.988-2.845-4.836-4.517-7.547-3.285-1.581.714-2.492 2.599-2.251 4.644Z" clip-rule="evenodd"/><path fill="#6CDCF2" fill-rule="evenodd" d="M353.425 447.496c-1.566 2.956-1.938 5.611-1.776 8.364.287 4.786 1.878 6.684 6.645 7.711 5.053 1.086 10.131 2.032 15.183 3.078 5.882 1.213 11.756 2.475 17.619 3.708 1.283-1.888 2.286-3.666 3.602-5.189 1.532-1.798 3.14-3.649 5.061-5.007 5.381-3.792 10.893-3.565 16.294.267 2.902 2.057 4.858 4.792 6.204 7.975.462 1.09.721 2.247 1.135 3.606.967.142 1.959.451 2.929.405 8.616-.424 17.233-.847 25.835-1.408 2.221-.143 4.439-.632 6.618-1.139 1.818-.425 3.683-.92 5.142-2.557.375-2.843-.961-5.492-1.422-8.116-1.353-1.294-2.772-.677-4.094-.607-4.24.199-8.229-.491-11.83-2.878-5.723-3.79-7.261-11.337-3.333-16.983 2.476-3.565 5.704-5.892 10.378-5.504.817.068 1.656-.053 2.479-.084-.095-4.11-3.474-18.372-6.368-27.036-1.197-.271-2.523-.587-3.839-.884-3.047-.696-5.969-1.694-8.528-3.506-3.275-2.31-5.115-5.336-5.161-9.448-.058-4.953.959-9.511 4.722-13.025 1.459-1.37 3.297-2.329 5.238-3.658a35.885 35.885 0 0 0-3.33-12.959c-4.132-.339-8.014.529-12.078.712-.854 1.298-1.669 2.575-2.535 3.814-1.276 1.828-2.704 3.504-4.722 4.628-3.949 2.196-8.057 1.994-11.593-.751-2.334-1.81-4.231-3.994-5.161-6.847-.311-.947-.689-1.882-1.017-2.79-3.838-1.369-7.526-2.674-11.364-4.042-1.819 2.491-2.231 5.385-3.874 7.889 1.186.757 2.039 1.268 2.855 1.841 3.384 2.355 5.517 5.617 6.642 9.452 2.171 7.414-2.868 15.892-10.44 18.006-2.815.789-5.471.335-8.121-.485-1.29-.397-2.492-1.054-3.968-1.7-2.795 4.466-4.052 9.419-5.887 14.106-1.853 4.748-3.557 9.559-5.409 14.584.698.3 1.251.665 1.844.771 6.38 1.154 9.081 5.71 10.515 11.244 1.111 4.27.068 8.117-3.492 11.02-1.59 1.296-3.198 2.623-4.985 3.61-3.306 1.835-6.809 2.343-10.41.738-.608-.264-1.226-.508-2.203-.926Zm40.723-26.643c-.268-6.646 2.99-12.109 8.665-15.111 4.829-2.565 10.349-1.576 14.21 2.234 5.225 5.164 5.135 15.601 2.13 19.976-1.916 2.782-4.148 5.012-7.756 5.326-5.485.483-10.187-1.189-14.004-5.14a11.622 11.622 0 0 1-3.245-7.285Z" clip-rule="evenodd"/><path fill="#FFEFF4" fill-rule="evenodd" d="M435.782 276.261c-7.282-2.446-14.332-6.294-22.788-4.216-.759 2.007-1.423 3.921-2.197 5.789-1.18 2.814-2.339 5.656-3.698 8.397-1.522 3.084-3.66 5.736-6.557 7.734-1.549 1.067-3.108 2.154-4.585 3.307-10.734 8.336-28.406 6.617-38.676-2.549-1.766-1.576-3.194-3.539-4.781-5.339-1.277.226-.887 1.2-.83 1.95.66 8.203 2.631 16.031 6.429 23.414 4.687 9.11 9.783 17.898 17.037 25.359 10.722 11.029 23.791 17.104 39.217 18.303 17.403 1.343 33.945-1.99 49.797-9.074 11.056-4.945 21.333-11.078 30.679-18.738 11.165-9.143 18.868-20.589 23.763-33.956.223-.612.226-1.294.364-2.061l-10.389-2.655c-.384.746-.903 1.567-1.252 2.45-4.51 11.345-12.762 19.152-23.698 24.44-24.467 8.852-44.052-7.263-46.893-25.511-.788-5.064-1.485-10.071-.686-15.185.051-.476-.135-.993-.256-1.859Zm-28.41 28.009c1.537.169 4.089.469 6.65.738 6.146.669 12.275 1.417 18.434 1.908 1.752.141 2.91.671 3.768 2.113.89 1.499 1.468 3.06 1.357 4.804-.328 5.126-1.33 10.059-4.106 14.525-2.906 4.668-6.96 7.214-12.615 7.595-8.141.554-14.993-1.661-17.237-12.089-.962-4.474-1.778-8.963-2.71-13.437-1.042-5.034-.34-5.931 4.902-6.099l1.557-.058Z" clip-rule="evenodd"/><path fill="#FFEFF4" fill-rule="evenodd" d="M351.089 252.214c-4.39 5.624-4.025 11.702-2.748 18.033 2.382 11.749 9.986 19.384 20.075 25.017 2.975 1.658 6.304 2.542 9.881 2.447 6.233-.165 11.872-1.772 16.664-5.849.522-.445 1.014-.948 1.599-1.287 4.285-2.416 6.539-6.397 8.312-10.667 1.89-4.551 3.492-9.19 4.339-14.068.878-5.107.554-10.099-.8-15.081-.877-3.241-2.642-5.855-5.127-8.036-3.144-2.759-6.886-4.438-10.837-5.704-1.609-.513-3.058-.191-4.206 1.108-1.13 1.279-2.41 2.454-3.378 3.836-4.934 7.089-12.196 9.636-20.428 10.114-4.297.251-8.599.107-13.346.137Zm25.474 13.045c-.109-1.331.366-3.06 1.423-4.692 1.808-2.798 4.439-3.52 7.568-3.004 2.487.4 3.856 2.119 4.386 5.511.154.993.223 2.029.093 3.013-.484 3.598-3.436 5.954-7.168 5.848-3.486-.107-6.042-2.601-6.302-6.676ZM468.175 251.387c-1.983-.311-3.57.283-5.209.789-10.716 3.301-23.477 17.222-22.419 32.382.212 3.038.61 6.079 1.144 9.076 2.265 12.543 15.056 25.364 33.604 22.421 4.32-.687 8.295-2.192 11.911-4.662 5.021-3.442 9.238-7.656 12.612-12.659 2.341-3.48 2.874-5.24 3.117-9.235-2.527-1.468-5.193-2.969-7.822-4.542-9.03-5.386-16.243-12.552-21.438-21.603-1.521-2.643-2.697-5.486-3.988-8.256-.564-1.195-1.004-2.455-1.512-3.711Zm-11.302 31.657c-.138-3.674 3.654-7.723 7.319-7.821 4.028-.103 8.141 3.906 8.379 8.17.212 3.829-3.23 6.994-7.758 7.115-4.537.132-7.77-2.902-7.94-7.464Z" clip-rule="evenodd"/><path fill="#FFEFF4" fill-rule="evenodd" d="M466.482 234.974c-1.633-.394-3.127-.743-4.623-1.112-6.872-1.729-12.001-5.611-15.468-11.76-3.152-5.598-4.596-11.655-5.603-17.878-.258-1.632-.583-3.241-.856-4.784-1.82-.129-1.828 1.226-2.221 1.993-2.621 5.201-5.926 9.934-9.531 14.511-5.873 7.43-13.398 12.638-22.13 16.27-1.72.708-3.449 1.406-5.701 2.321 1.352 1.008 2.203 1.727 3.138 2.325 5.801 3.757 9.147 9.021 10.35 15.75.782 4.382.926 8.748.418 13.267 4.008.679 7.92 1.136 11.71 2.031 3.821.905 7.53 2.258 11.49 3.484 5.998-12.726 14.765-22.244 29.453-25.309-.144-3.584-.275-7.08-.426-11.109ZM295.046 423.06c3.118.219 5.154.37 7.189.501 1.24.082 2.443.254 2.973 1.579.455 1.15-.041 2.316-1.519 3.449-.81.634-1.754 1.105-2.533 1.767-.77.652-1.547 1.383-2.065 2.234-.268.445-.129 1.28.117 1.805.128.272.96.488 1.337.355 1.288-.464 2.521-1.064 3.754-1.664 1.079-.525 2.08-1.285 3.206-1.614.699-.204 1.813-.049 2.311.407.508.466.774 1.554.624 2.261-.275 1.306-.985 2.52-1.398 3.811-.323 1.051.487 1.999 1.676 2.044 1.444.054 2.79-.155 3.278-1.795.461-1.56 1.073-3.037 3.097-2.678 1.679.293 1.772 1.733 2.079 3.116.587 2.589 3.688 3.916 5.994 2.642.539-.297 1.024-.958 1.199-1.538.913-3.12 1.401-6.313.927-9.549-.515-3.531-1.195-7.026-1.768-10.555-.202-1.199-.708-2.139-1.51-3.127-1.893-2.352-4.008-4.607-4.395-7.866-.111-.876-.962-1.842-1.73-2.456-4.512-3.658-9.62-5.948-15.566-5.961-2.982-.007-4 1.357-3.579 4.229.253 1.77 1.014 3.245 2.429 4.339 1.081.839 2.246 1.567 3.365 2.365 1.017.724 1.884 1.591 1.464 2.962-.342 1.09-1.287 1.512-2.391 1.632-4.113.462-5.992 3.45-8.565 7.305ZM505 328.446c2.928 1.175 5.542 1.027 8.072 1.011a42.676 42.676 0 0 0 12.715-2.041c3.839-1.232 7.256-3.22 10.002-6.132 3.83-4.071 5.921-8.738 4.433-14.428-.605-2.292-.902-4.703-1.807-6.865-.765-1.83-2.025-3.543-3.377-5.045-2.026-2.248-4.775-2.57-7.624-1.889-.768.187-1.591.733-2.078 1.344-.834 1.05-1.614 2.217-2.078 3.461-3.987 10.623-9.419 20.391-17.206 28.813-.311.348-.498.84-1.052 1.771ZM484.389 454.424c1.782-.621 1.947-1.982 2.26-3.309.686-2.894 1.474-3.863 2.793-3.487 2.231.628 1.879 2.51 1.981 4.178.096 1.519.154 3.06.425 4.553.147.775.732 1.475 1.06 2.106 2.124.385 3.107-.849 3.842-2.202.725-1.333 1.069-2.868 1.814-4.192.359-.637 1.266-1.314 1.942-1.319.686-.016 1.583.603 2.056 1.208.618.778.769 1.929 1.396 2.697a19.614 19.614 0 0 0 3.275 3.11c.424.321 1.364.256 1.935.046 1.006-.364 1.016-1.403.743-2.164-.865-2.38-1.845-4.727-2.854-7.053-.537-1.245-1.335-2.382-1.785-3.651-.547-1.502.986-3.271 2.56-2.905 1.484.35 2.93.968 4.345 1.557 1.744.736 3.388 1.693 5.177 2.298 1.043.356 2.254.221 3.75.333-.843-3.37-2.612-5.568-5.02-7.268-.776-.544-1.899-.67-2.887-.87-.999-.21-2.057-.18-3.038-.439-1.09-.286-1.776-1.061-1.644-2.243.133-1.182.993-1.778 2.076-1.937 1.015-.147 2.066-.098 3.095-.117 4.411-.106 7.414-2.415 9.546-6.016.903-1.537.102-3.04-1.726-3.386-.168-.034-.337-.077-.513-.08-8.805-.143-17.091 1.504-24.557 6.462-3.685 2.443-6.352 5.619-8.358 9.433-1.428 2.714-2.837 5.428-4.256 8.141-.843 1.595-.888 3.278-.433 4.952.149.578.668 1.072 1 1.564ZM346.903 294.193c-.454-5.046-.853-9.946-1.36-14.832-.122-1.163-.538-2.314-.943-3.436-2.657-7.298-2.577-14.619-.362-22.001.341-1.111.601-2.297.587-3.444-.031-3.45-1.845-5.261-5.344-5.456-2.891-.168-5.428.709-7.582 2.649-3.939 3.541-5.913 7.927-5.639 13.158.271 5.133 1.359 10.086 4.029 14.604 3.918 6.656 8.703 12.628 14.232 18.037.367.352.828.612 1.269.872.1.056.303-.041 1.113-.151Z" clip-rule="evenodd"/><path fill="#F3C888" fill-rule="evenodd" d="M499.96 332.463c2.887.594 5.079.986 7.237 1.488 2.187.521 4.39 1.2 5.652 3.209 3.733 5.902 7.515 11.793 10.988 17.843 1.332 2.314 2.247 4.989 2.727 7.611 1.022 5.55-1.319 8.001-7.091 7.625-1.671-.105-3.389-.653-4.916-1.358-1.857-.859-3.541-2.082-5.289-3.173-1.165-.727-2.238-1.607-3.439-2.254-2.423-1.313-4.023-.56-4.466 2.037-.224 1.344-.191 2.737-.545 4.036-.673 2.448-1.296 4.954-2.408 7.211-2.642 5.411-4.59 3.941-7.223 1.222-1.306-1.346-2.623-2.73-4.127-3.84-2.078-1.544-4.264-1.244-5.966.728-.997 1.156-1.79 2.491-2.635 3.769-.742 1.145-1.373 2.356-2.145 3.483-1.62 2.335-3.926 3.361-6.721 2.844-4.801-.878-8.821-2.942-10.747-7.725a34.365 34.365 0 0 1-1.418-4.358 548.364 548.364 0 0 1-2.829-11.899c-.177-.775-.08-1.599-.121-2.686 16.774-6.041 32.226-14.129 45.482-25.813ZM323.944 330.237c.121-1.488.444-3.063 1.111-4.384.913-1.804 1.993-3.635 3.421-5.034 4.268-4.176 8.689-8.209 13.18-12.166 1.9-1.673 4.074-3.071 6.973-3.971 1.275 3.127 2.279 5.838 3.466 8.454 5.172 11.337 11.36 22.032 20.251 31.043 3.1 3.147 3.214 4.883.959 8.568-3.153 5.152-7.75 8.658-13.518 10.477-5.934 1.866-10.078-.095-12.311-5.757-1.061-2.67-2.738-3.714-5.506-3.481-.851.071-1.724.065-2.58-.002-3.807-.292-5.313-2.263-4.277-5.773.384-1.28 1.064-2.493 1.696-3.693.632-1.201 1.463-2.31 2.036-3.528.836-1.782-.192-3.554-2.13-3.708-1.201-.103-2.411.071-3.611-.012-1.534-.101-3.115-.16-4.583-.58-3.322-.962-4.844-3.111-4.577-6.453ZM355.915 237.77c-.694.59-1.551 1.018-3.016 1.973 1.469-6.078 3.151-11.205 5.379-16.145 5.508-12.183 13.884-22.2 23.77-31.166 6.584-5.974 14.012-10.378 22.404-13.394 6.707-2.408 13.622-3.746 20.646-4.525 6.565-.732 13.129-.435 19.52 1.273 7.312 1.95 14.624 3.89 21.71 6.59 9.473 3.609 17.931 8.641 24.756 16.158 1.606 1.769 3.088 3.879 5.111 4.999 3.356 1.862 5.308 4.746 7.302 7.697 4.581 6.809 8.364 14.055 11.617 21.557 5.831 13.468 8.662 27.523 8.073 42.182-.186 4.715-.766 9.405-2.346 13.835-4.644.68-8.474-.462-11.863-2.441-.883-5.505-1.656-10.698-2.566-15.875-1.123-6.396-3.879-11.9-9.069-16.105-6.171-5-13.14-8.011-21.147-8.6l-3.473-.274c-1.564-4.56-1.61-5.775-.407-10.587.768-3.085.265-3.936-2.878-4.579-2.195-.452-4.423-.734-6.599-1.235-5.334-1.224-9.292-4.249-12.008-8.934-2.423-4.181-3.837-8.687-4.691-13.402-.949-5.186-1.674-10.39-1.764-15.678a12.098 12.098 0 0 0-.581-3.489c-.444-1.358-2.386-1.878-3.429-.929-1.385 1.259-2.652 2.543-3.376 4.41-1.361 3.482-2.88 6.932-4.65 10.222-7.41 13.779-18.088 23.863-33.561 28.49-4.007 1.189-7.919 2.286-12.115 1.059-.982-.289-2.042-.318-3.076-.418-10.16-.973-19.639.522-27.673 7.331Z" clip-rule="evenodd"/><path fill="#F3C888" fill-rule="evenodd" d="M474.075 250.987c.309-.13.624-.38.918-.371 10.203.269 17.943 5.002 23.936 12.836.505.654.81 1.483 1.115 2.272 2.102 5.588 2.715 11.469 3.699 17.841-13.572-4.593-29.205-22.053-29.668-32.578ZM354.419 247.311c4.288-8.874 18.326-14.615 28.743-11.248-.944 1.261-1.851 2.453-2.737 3.673-2.529 3.447-5.905 5.503-10.104 6.561-5.092 1.28-10.214.988-15.902 1.014Z" clip-rule="evenodd"/><path fill="#F9BD70" fill-rule="evenodd" d="M411.128 538.466c8.295 2.239 19.865-.51 25.375-5.831-.034-1.423-1.03-2.107-2.237-2.378-5.086-1.174-10.236-1.425-15.381-.519a10.847 10.847 0 0 0-5.86 3.049c-1.523 1.511-2.47 3.218-1.897 5.679ZM316.324 503.77c1.111-1.258 1.176-2.398.594-3.533-2.961-5.733-6.372-11.163-11.245-15.548-1.492-1.349-3.071-2.634-5.623-2.419-.246 1.037-.729 2.005-.646 2.922.16 1.655.45 3.365 1.057 4.914 2.253 5.691 9.257 11.698 15.863 13.664Z" clip-rule="evenodd"/><path fill="#FFEFF4" fill-rule="evenodd" d="M449.459 383.768c-.126-.212-.262-.423-.397-.634.043.106.038.244.12.31.111.094.27.137.41.201-.01 0-.133.123-.133.123Z" clip-rule="evenodd"/><path fill="#FFE7A4" fill-rule="evenodd" d="M382.846 390.651c4.609-.035 9.885-6.879 9.176-10.898-.558-3.114-1.739-5.838-4.058-8.026-2.115-1.997-4.078-1.775-5.377.727a357.255 357.255 0 0 0-6.299 12.807c-.9 1.913-.349 3.277 1.673 4.1 1.544.605 3.25.867 4.885 1.29ZM355.068 442.342c2.248 2.665 4.83 3.25 7.869 1.87.926-.421 1.838-.93 2.691-1.486 5.851-3.81 6.31-10.147 1.119-14.897-2.651-2.432-6.149-1.816-7.457 1.517-1.676 4.237-3.153 8.545-4.222 12.996ZM461.157 453.084c-.798-3.778-1.503-7.401-2.354-10.998-.849-3.568-5.041-5.497-8.486-3.973-2.953 1.308-4.223 3.818-4.631 6.8-.401 2.913.579 5.26 3.163 6.923 3.83 2.477 7.818 2.89 12.308 1.248ZM397.032 471.173c7.232 1.369 14.15 1.692 21.169 1.309-.811-5.685-4.764-9.878-9.77-10.481-1.123-.135-2.39.1-3.484.478-3.864 1.332-5.626 3.277-7.915 8.694ZM443.403 380.509c-1.424.756-2.403 1.069-3.096 1.679-1.7 1.498-2.727 3.406-3.192 5.658-1.471 7.097 1.509 11.485 8.746 12.726 1.273.219 2.343-.811 2.038-2.164-.894-3.952-1.875-7.881-2.856-11.819-.439-1.774-.947-3.545-1.64-6.08ZM407.204 362.617c1.438 3.565 3.326 5.788 6.748 6.016 1.239.081 2.669-.506 3.803-1.142 1.287-.721 2.404-1.812 2.544-3.834-4.333-.184-8.445-.761-13.095-1.04ZM416.983 418.946c-.499-1.781-.765-3.66-1.524-5.313-2.209-4.792-7.712-6.089-12.05-3.008-2.179 1.546-3.683 3.551-4.333 6.117-1.776 7.059 4.768 13.636 12.105 12.045 1.226-.264 2.456-1.22 3.323-2.162 1.96-2.131 2.37-4.817 2.479-7.679Z" clip-rule="evenodd"/><path fill="#F2F3F5" fill-rule="evenodd" d="M432.503 313.402c-3.01-1.538-5.805-2.036-8.757-2.291-4.793-.413-9.541-1.223-14.322-1.824-.985-.131-1.984-.084-3.33-.122.011 1.058-.096 1.873.06 2.638.868 4.319 1.697 8.639 2.73 12.922.95 3.9 3.589 5.987 7.684 6.376 8.388.812 11.607-2.039 14.224-8.13 1.282-2.946 2.087-6.082 1.711-9.569Z" clip-rule="evenodd"/><path fill="#FEDAC6" fill-rule="evenodd" d="M350.661 286.656c-.299-8 5.044-15.41 13.36-15.486 7.894-.08 14.37 7.054 16.106 14.367 1.281 5.411-.142 11.151-3.704 14.796-4.298 5.996-12.841 6.021-18.305 1.302-4.644-3.257-7.238-9.4-7.457-14.979ZM466.136 303.324c4.191-8.573 13.756-10.13 21.736-6.079 7.46 3.784 11.003 12.225 9.745 20.293-1.125 7.163-7.57 11.074-14.077 12.051-4.828.726-10.569-1.432-13.777-5.109a14.37 14.37 0 0 1-1.489-2.03c-3.988-5.378-5.027-13.221-2.138-19.126Z" clip-rule="evenodd"/><path fill="#664E2B" fill-rule="evenodd" d="M449.46 383.771c.749.872 1.641 1.649 2.217 2.607a153.199 153.199 0 0 0 13.25 18.806c4.769 5.804 9.557 11.597 14.469 17.296 2.543 2.95 5.363 5.693 8.314 8.786-1.112 2-2.272 4.041-3.391 6.121-1.614 2.998-3.308 5.959-4.732 9.049-1.516 3.271-1.273 6.624.309 9.838 1.592 3.224 2.697 3.667 6.612 2.906.312-.061.658.005 1.119.017.567.731 1.119 1.59 1.823 2.315 2.234 2.28 4.768 2.629 7.45.897 1.408-.904 2.618-2.126 4.045-3.317 1.187.796 2.222 1.716 3.439 2.264 1.378.63 2.891 1.236 4.377 1.338 3.628.229 5.811-1.989 5.745-5.576a20.54 20.54 0 0 0-.377-3.537c-.209-1.129-.614-2.231-.998-3.601 1.663-.627 2.837.318 4.053.579 2.067.446 4.067.687 6.096-.15 1.613-.674 2.413-1.842 2.447-3.544.051-2.306-.829-4.32-2.047-6.203-.906-1.41-1.937-2.736-3.014-4.258 1.037-.86 2.043-1.521 2.824-2.391 1.366-1.515 2.83-3.024 3.804-4.781 2.427-4.354.242-8.722-4.743-9.573-2.015-.349-4.133-.329-6.187-.172-8.548.677-16.662 2.743-23.631 7.851-2.482-.242-4.228-1.571-5.742-3.225-2.086-2.265-4.229-4.489-6.163-6.869-6.467-7.945-13.069-15.796-19.164-24.013-3.646-4.906-6.635-10.312-9.582-15.68-2.843-5.184-5.262-10.592-8.034-16.233 1.68-.469 3.282-.915 4.786-1.338 1.414 1.589 1.732 3.268 2.126 4.895.791 3.303 1.533 6.618 2.343 9.92.786 3.165 1.939 6.207 4.16 8.665 3.499 3.864 8.11 5.708 13.256 6.108 3.059.231 5.769-1.009 7.853-3.253 1.15-1.25 2.067-2.708 3.024-4.119.856-1.259 1.63-2.573 2.63-4.164.998.704 1.83 1.197 2.54 1.823 1.157 1.015 2.163 2.203 3.356 3.167 3.4 2.78 7.108 2.502 10.036-.763 1.968-2.201 3.214-4.819 4.091-7.601.508-1.612.898-3.258 1.451-5.267.846.324 1.608.523 2.289.883 1.812.971 3.542 2.112 5.381 3.022 3.737 1.837 7.635 1.938 11.571.672 4.293-1.388 6.509-4.32 6.519-8.751.014-4.342-1.344-8.395-3.475-12.122-2.194-3.844-4.676-7.528-7.024-11.287-1.429-2.28-3.061-4.464-4.009-7.237 2.452-1.081 4.859-1.231 7.155-1.752 5.145-1.163 9.784-3.306 13.693-6.835 5.703-5.15 8.658-11.373 7.318-19.125-.437-2.506-.875-5.041-1.701-7.443-2.775-8.094-7.449-11.379-16.434-11.615-.064-.917-.336-1.906-.165-2.822 3.437-19.058-.155-37.159-7.59-54.721-3.121-7.378-6.984-14.383-11.337-21.132-3.166-4.915-7.016-9.25-11.455-13.059-7.044-6.034-14.376-11.653-22.855-15.665-1.697-.807-3.441-1.522-5.193-2.208-1.275-.506-2.667-.76-3.896-1.357-5.925-2.882-12.384-4.043-18.684-5.675-9.153-2.385-18.426-2.185-27.713-.549-6.305 1.117-12.446 2.693-18.389 5.073-6.775 2.717-12.928 6.321-18.469 11.079-11.462 9.837-21.079 21.018-27.341 34.803-2.619 5.765-4.305 11.822-6.051 17.861-.269.939-.627 1.863-1.051 3.105-1.038-.475-1.759-.854-2.506-1.152-5.887-2.399-11.171-1.27-15.773 2.878-4.991 4.51-7.352 10.107-7.041 16.84.306 6.595 2.065 12.71 5.6 18.313 4.099 6.521 8.894 12.502 14.481 17.87 1.088 1.047 2.177 2.093 3.541 3.397-.868.666-1.476 1.203-2.156 1.634-6.839 4.421-12.726 9.894-18.153 15.854-2.695 2.95-4.49 6.35-5.343 10.308-1.052 4.915 1.409 10.638 7.895 12.54.823.236 1.691.342 2.531.518.811.177 1.623.374 2.682.631-.644 1.666-1.26 3.024-1.707 4.435-2.064 6.467 1.163 11.161 8.011 11.715 1.2.093 2.399.157 3.776.243.604 1.204 1.17 2.429 1.841 3.59 1.806 3.156 4.593 5.039 8.177 5.646 3.82.637 7.536.329 11.133-1.319 6.481-2.974 11.576-7.319 14.63-13.803.281-.604.633-1.171 1.018-1.897.708.329 1.364.551 1.917.916 1.117.749 2.188 1.579 3.52 2.558-.674 1.123-1.165 2.18-1.877 3.077-8.353 10.609-16.634 21.286-25.169 31.754-6.087 7.458-13 14.107-21.728 18.629-2.28 1.183-4.654 2.222-7.041 3.182-2.088.84-3.067.373-4.133-1.654-.159-.301-.279-.622-.398-.934-1.515-4.295-4.677-7.024-8.702-8.94-3.736-1.787-7.533-3.385-11.77-3.611-.521-.03-1.026-.16-1.536-.17-6.133-.046-9.641 4.259-8.176 10.108.324 1.304.891 2.568 1.524 3.76.538 1.019 1.337 1.908 2.351 3.324-1.233 1.124-2.596 2.175-3.717 3.423-1.13 1.269-2.217 2.635-2.985 4.128-1.26 2.49-.603 4.572 1.724 6.205.816.573 1.781.952 2.981 1.559-.503.959-1.012 1.789-1.391 2.663-2.169 4.958.223 8.566 5.614 8.472 1.03-.019 2.044-.176 2.982-.27.354.283.703.438.841.71 2.065 4.056 3.876 5.273 8.063 4.433 2.541-.511 4.607-.341 6.862.929 1.272.714 2.976.887 4.507.918 3.79.085 6.312-1.731 7.186-5.354 1.036-4.301 1.668-8.637.648-13.108-.868-3.785-1.327-7.654-1.987-11.664 1.725-.827 3.236-1.596 4.78-2.277 7.652-3.403 14.239-8.26 20.121-14.128 5.475-5.457 10.141-11.577 14.938-17.592 2.108-2.651 4.206-5.321 6.36-8.043.985 1.15.149 1.884-.19 2.52-7.462 14.245-12.444 29.464-18.094 44.423-3.355 8.888-6.284 17.929-9.173 26.958-1.169 3.634-1.442 7.323-.743 11.075.813 4.429 3.384 7.339 7.759 8.648 1.796.536 3.645.921 5.903 1.489-.86 1.417-1.453 2.606-2.257 3.655a711.412 711.412 0 0 1-9.802 12.523c-5.202 6.476-11.326 11.899-19.002 15.421-2.325 1.067-4.615 2.241-7.401 2.247-2.353-7.309-6.71-13.375-11.535-19.108-1.509-1.792-3.637-3.077-5.536-4.539-.535-.405-1.204-.706-1.858-.889-4.826-1.302-8.418-.316-8.935 5.796-.267 3.105.414 6.096 1.91 8.848 3.624 6.668 9.024 11.508 15.96 14.659 2.225 1.004 4.478.91 7.006.577 11.557-1.533 20.64-7.304 28.472-15.342 2.739-2.813 5.214-5.893 7.699-8.934 2.373-2.917 4.634-5.92 6.876-8.932 1.205-1.627 2.269-3.339 3.439-5.094 9.912 1.941 19.862 3.861 29.804 5.841 9.834 1.954 19.881.962 29.994 1.729 1.914 16.018 2.59 31.975 7.854 47.076-2.162 1.219-3.876.502-5.547.416-3.627-.199-7.221-.301-10.797.605-3.275.825-6.082 2.365-8.364 4.824-2.083 2.244-2.975 4.889-2.704 7.954.221 2.494 1.509 4.137 3.861 4.869 1.301.406 2.686.72 4.051.767 8.715.374 16.7-1.973 24.054-6.532 2.406-1.485 4.255-3.464 4.854-6.334.333-1.575.021-2.83-1.547-3.324-2.135-.682-2.924-2.116-3.484-3.974-2.288-7.667-4.216-15.407-5.141-23.353-.883-7.592-1.609-15.19-2.432-23.021 1.238-.205 2.396-.476 3.559-.569 6.533-.533 13.079-.987 19.601-1.549 3.804-.321 7.521-1.114 10.939-2.854 3.686-1.88 4.512-3.404 3.616-7.415-3.162-14.251-6.325-28.521-9.711-42.724-2.677-11.233-5.694-22.394-8.487-33.592-.404-1.617-.429-3.327-.629-5.001-.14-.064-.299-.117-.41-.202-.081-.066-.076-.205-.119-.312.146.242.281.454.407.667Zm23.252-138.282c-1.564-4.56-1.609-5.775-.406-10.587.767-3.084.265-3.936-2.879-4.579-2.195-.451-4.422-.734-6.599-1.235-5.333-1.223-9.292-4.249-12.008-8.933-2.422-4.182-3.837-8.687-4.69-13.402-.95-5.186-1.674-10.391-1.764-15.678a12.128 12.128 0 0 0-.582-3.489c-.443-1.358-2.385-1.879-3.429-.929-1.385 1.258-2.651 2.542-3.376 4.409-1.361 3.483-2.88 6.932-4.65 10.223-7.41 13.778-18.088 23.862-33.561 28.489-4.007 1.189-7.919 2.286-12.114 1.059-.982-.289-2.043-.318-3.077-.418-10.14-.973-19.619.531-27.663 7.331-.694.59-1.551 1.018-3.016 1.973 1.47-6.078 3.151-11.205 5.38-16.145 5.508-12.183 13.883-22.2 23.769-31.167 6.584-5.974 14.012-10.377 22.404-13.393 6.708-2.408 13.622-3.746 20.646-4.525 6.565-.732 13.129-.435 19.52 1.273 7.312 1.95 14.624 3.89 21.71 6.59 9.474 3.609 17.931 8.641 24.756 16.158 1.606 1.769 3.088 3.879 5.111 4.999 3.356 1.862 5.308 4.745 7.302 7.697 4.581 6.809 8.364 14.055 11.617 21.557 5.831 13.468 8.662 27.523 8.073 42.182-.186 4.715-.766 9.405-2.346 13.835-4.644.679-8.473-.462-11.863-2.441-.883-5.505-1.656-10.698-2.566-15.875-1.122-6.396-3.879-11.9-9.069-16.106-6.171-4.999-13.14-8.01-21.147-8.599-1.19-.084-2.381-.187-3.483-.274ZM353.426 447.495c.987.408 1.595.662 2.203.926 3.601 1.605 7.114 1.097 10.41-.738 1.787-.987 3.395-2.313 4.985-3.609 3.56-2.913 4.603-6.75 3.492-11.02-1.434-5.534-4.135-10.09-10.515-11.245-.603-.105-1.146-.471-1.844-.771 1.852-5.024 3.556-9.826 5.409-14.583 1.835-4.697 3.091-9.65 5.887-14.107 1.486.646 2.688 1.303 3.968 1.7 2.65.82 5.306 1.274 8.121.486 7.572-2.115 12.621-10.592 10.44-18.007-1.125-3.834-3.258-7.096-6.642-9.451-.816-.573-1.679-1.084-2.855-1.841 1.643-2.505 2.054-5.408 3.874-7.89 3.828 1.369 7.526 2.674 11.364 4.043.328.907.706 1.842 1.017 2.79.94 2.862 2.827 5.036 5.161 6.847 3.536 2.745 7.644 2.956 11.593.751 2.018-1.125 3.446-2.8 4.722-4.629.866-1.239 1.681-2.515 2.535-3.814 4.064-.182 7.946-1.05 12.078-.711a35.88 35.88 0 0 1 3.33 12.959c-1.941 1.338-3.789 2.288-5.238 3.658-3.763 3.514-4.77 8.072-4.722 13.024.046 4.113 1.886 7.139 5.161 9.449 2.569 1.812 5.49 2.809 8.528 3.506 1.325.296 2.642.603 3.839.884 2.894 8.663 6.273 22.916 6.368 27.036-.823.031-1.662.142-2.479.083-4.683-.377-7.902 1.94-10.378 5.504-3.928 5.647-2.39 13.194 3.333 16.984 3.601 2.386 7.59 3.077 11.83 2.877 1.323-.059 2.741-.676 4.094.608.461 2.623 1.797 5.273 1.422 8.115-1.459 1.638-3.324 2.133-5.142 2.557-2.179.508-4.397.997-6.618 1.14-8.602.551-17.219.984-25.835 1.407-.97.046-1.962-.272-2.929-.404-.423-1.359-.682-2.516-1.135-3.607-1.346-3.183-3.302-5.918-6.204-7.974-5.401-3.822-10.923-4.059-16.294-.267-1.921 1.358-3.529 3.208-5.061 5.006-1.306 1.523-2.309 3.302-3.602 5.19-5.863-1.233-11.737-2.496-17.619-3.708-5.052-1.047-10.139-1.992-15.183-3.078-4.767-1.027-6.358-2.926-6.645-7.711-.172-2.753.2-5.398 1.776-8.365Zm82.357-171.234c.121.866.317 1.383.236 1.85-.799 5.114-.102 10.121.686 15.185 2.841 18.248 22.426 34.363 46.893 25.511 10.936-5.297 19.188-13.104 23.698-24.44.349-.883.868-1.704 1.252-2.45l10.39 2.655c-.129.766-.142 1.449-.365 2.061-4.895 13.367-12.608 24.813-23.763 33.956-9.346 7.67-19.622 13.802-30.679 18.738-15.852 7.084-32.384 10.416-49.797 9.074-15.426-1.199-28.485-7.275-39.217-18.303-7.244-7.461-12.35-16.249-17.037-25.359-3.808-7.383-5.769-15.221-6.429-23.414-.067-.749-.447-1.724.83-1.95 1.598 1.809 3.015 3.763 4.781 5.339 10.27 9.166 27.943 10.885 38.676 2.549 1.487-1.154 3.036-2.24 4.585-3.307 2.897-1.998 5.035-4.65 6.557-7.734 1.36-2.741 2.519-5.573 3.698-8.397.774-1.868 1.438-3.782 2.197-5.789 8.476-2.069 15.526 1.779 22.808 4.225Zm-84.693-24.048c4.746-.041 9.048.114 13.335-.146 8.232-.488 15.494-3.026 20.428-10.115.968-1.391 2.248-2.557 3.378-3.836 1.147-1.309 2.597-1.621 4.206-1.107 3.951 1.265 7.703 2.944 10.837 5.703 2.495 2.181 4.251 4.805 5.127 8.036 1.354 4.983 1.688 9.984.8 15.081-.847 4.878-2.459 9.517-4.339 14.068-1.772 4.28-4.027 8.251-8.311 10.668-.586.328-1.087.842-1.6 1.286-4.782 4.077-10.431 5.684-16.664 5.849-3.576.105-6.895-.779-9.881-2.447-10.099-5.632-17.703-13.268-20.075-25.017-1.276-6.311-1.631-12.399 2.759-18.023Zm117.085-.827c.508 1.256.948 2.516 1.513 3.721 1.29 2.77 2.466 5.613 3.987 8.256 5.195 9.051 12.418 16.216 21.438 21.603 2.629 1.572 5.295 3.074 7.822 4.542-.233 3.994-.766 5.745-3.117 9.235-3.374 5.003-7.591 9.226-12.612 12.659-3.616 2.47-7.591 3.975-11.911 4.661-18.548 2.934-31.329-9.887-33.603-22.421a81.032 81.032 0 0 1-1.144-9.075c-1.058-15.161 11.693-29.081 22.419-32.382 1.638-.517 3.225-1.11 5.208-.799Zm-1.693-16.413.416 11.11c-14.688 3.065-23.445 12.582-29.453 25.309-3.959-1.216-7.669-2.569-11.49-3.484-3.791-.905-7.692-1.352-11.71-2.031a45.627 45.627 0 0 0-.418-13.267c-1.203-6.719-4.549-11.983-10.35-15.75-.935-.608-1.786-1.327-3.138-2.325 2.261-.915 3.981-1.613 5.701-2.321 8.732-3.632 16.257-8.84 22.129-16.27 3.616-4.567 6.921-9.31 9.532-14.511.392-.777.4-2.132 2.22-1.993.274 1.533.599 3.152.856 4.784 1.008 6.223 2.451 12.28 5.604 17.878 3.467 6.149 8.596 10.031 15.468 11.76 1.505.369 2.999.718 4.633 1.111Zm33.48 97.489c2.886.593 5.079.985 7.236 1.488 2.187.521 4.391 1.199 5.653 3.209 3.733 5.902 7.514 11.792 10.987 17.842 1.333 2.314 2.247 4.989 2.728 7.612 1.022 5.549-1.319 8.001-7.092 7.625-1.671-.106-3.389-.654-4.916-1.358-1.857-.86-3.541-2.082-5.288-3.173-1.165-.728-2.238-1.607-3.44-2.254-2.423-1.314-4.023-.561-4.465 2.037-.224 1.343-.192 2.737-.546 4.036-.673 2.448-1.295 4.954-2.408 7.211-2.642 5.41-4.59 3.941-7.223 1.221-1.306-1.345-2.623-2.73-4.126-3.84-2.079-1.544-4.265-1.244-5.967.729-.996 1.155-1.79 2.49-2.635 3.768-.741 1.146-1.373 2.356-2.145 3.483-1.62 2.336-3.926 3.362-6.721 2.844-4.8-.878-8.821-2.942-10.746-7.725a34.145 34.145 0 0 1-1.419-4.357 554.382 554.382 0 0 1-2.829-11.9c-.176-.775-.08-1.599-.12-2.685 16.774-6.041 32.225-14.129 45.482-25.813Zm-151.323-27.781c1.275 3.126 2.279 5.838 3.466 8.453 5.172 11.337 11.36 22.032 20.251 31.043 3.1 3.147 3.214 4.884.959 8.568-3.153 5.153-7.75 8.659-13.518 10.478-5.934 1.865-10.078-.095-12.311-5.757-1.061-2.67-2.739-3.715-5.506-3.482a15.99 15.99 0 0 1-2.58-.002c-3.807-.292-5.313-2.262-4.277-5.773.384-1.28 1.064-2.492 1.696-3.693.632-1.201 1.463-2.31 2.036-3.528.836-1.782-.192-3.553-2.13-3.708-1.201-.103-2.411.071-3.611-.012-1.534-.101-3.115-.16-4.583-.579-3.322-.953-4.844-3.101-4.577-6.444.121-1.488.445-3.063 1.111-4.384.914-1.804 1.993-3.635 3.422-5.034 4.268-4.175 8.688-8.209 13.18-12.165 1.898-1.694 4.073-3.081 6.972-3.981ZM295.047 423.06c2.573-3.855 4.443-6.843 8.566-7.285 1.114-.121 2.049-.542 2.391-1.633.42-1.361-.446-2.228-1.464-2.961-1.119-.799-2.284-1.516-3.365-2.366-1.415-1.094-2.176-2.568-2.429-4.339-.421-2.872.597-4.245 3.579-4.229 5.945.014 11.063 2.303 15.566 5.961.768.614 1.619 1.581 1.73 2.457.387 3.259 2.502 5.513 4.395 7.865.792.979 1.307 1.919 1.51 3.128.573 3.519 1.253 7.024 1.768 10.555.474 3.235-.014 6.428-.928 9.548-.174.581-.659 1.242-1.198 1.539-2.306 1.273-5.407-.054-5.994-2.643-.316-1.372-.4-2.823-2.079-3.116-2.034-.358-2.636 1.118-3.097 2.678-.488 1.641-1.824 1.859-3.278 1.795-1.189-.044-1.999-.993-1.676-2.043.413-1.292 1.123-2.505 1.398-3.811.15-.708-.116-1.796-.624-2.261-.498-.456-1.612-.612-2.311-.408-1.135.33-2.127 1.089-3.206 1.614-1.224.6-2.466 1.201-3.754 1.665-.377.133-1.209-.073-1.337-.355-.246-.525-.385-1.37-.117-1.806.518-.85 1.295-1.581 2.065-2.234.779-.662 1.723-1.142 2.533-1.766 1.478-1.144 1.983-2.31 1.519-3.45-.531-1.334-1.734-1.497-2.973-1.579-2.026-.161-4.062-.302-7.19-.52Zm209.954-94.615c.553-.931.741-1.423 1.071-1.781 7.788-8.413 13.219-18.19 17.206-28.814.464-1.243 1.245-2.4 2.078-3.46.487-.622 1.31-1.167 2.078-1.344 2.839-.681 5.598-.359 7.624 1.888 1.351 1.492 2.612 3.215 3.377 5.046.906 2.171 1.202 4.573 1.807 6.864 1.488 5.69-.593 10.357-4.433 14.428-2.746 2.912-6.163 4.91-10.002 6.132a42.677 42.677 0 0 1-12.715 2.042c-2.55.026-5.154.164-8.091-1.001Zm-20.613 125.979c-.333-.502-.851-.997-1.011-1.584-.455-1.674-.41-3.357.433-4.951 1.419-2.714 2.828-5.427 4.257-8.141 2.005-3.814 4.672-6.99 8.357-9.433 7.476-4.95 15.753-6.606 24.557-6.463.167.004.335.047.513.08 1.828.356 2.639 1.849 1.726 3.386-2.122 3.601-5.135 5.91-9.545 6.017-1.029.028-2.081-.031-3.096.116-1.073.159-1.943.756-2.075 1.937-.132 1.192.553 1.958 1.643 2.243.981.26 2.039.23 3.038.439.988.201 2.102.327 2.887.871 2.408 1.689 4.178 3.897 5.02 7.268-1.495-.112-2.707.022-3.75-.334-1.778-.605-3.433-1.572-5.177-2.297-1.415-.59-2.851-1.208-4.345-1.558-1.564-.366-3.096 1.403-2.56 2.905.46 1.269 1.248 2.406 1.785 3.652 1 2.326 1.99 4.672 2.854 7.053.274.771.263 1.799-.743 2.164-.581.209-1.51.274-1.934-.046a19.148 19.148 0 0 1-3.275-3.111c-.628-.767-.779-1.919-1.396-2.697-.474-.595-1.361-1.224-2.056-1.208-.677.016-1.583.693-1.942 1.319-.745 1.324-1.09 2.86-1.815 4.193-.734 1.352-1.718 2.586-3.842 2.201-.327-.63-.913-1.33-1.059-2.106-.282-1.493-.339-3.023-.426-4.553-.102-1.667.25-3.55-1.981-4.178-1.319-.376-2.106.603-2.793 3.487-.302 1.347-.467 2.708-2.249 3.329Zm-137.485-160.23c-.82.119-1.022.216-1.122.151-.442-.261-.902-.51-1.269-.872-5.539-5.409-10.315-11.391-14.232-18.038-2.671-4.518-3.759-9.471-4.029-14.603-.274-5.232 1.7-9.618 5.638-13.158 2.154-1.94 4.692-2.817 7.582-2.649 3.509.194 5.313 2.005 5.344 5.456.014 1.146-.256 2.333-.587 3.444-2.225 7.382-2.304 14.703.363 22 .404 1.113.82 2.264.943 3.436.516 4.886.915 9.786 1.369 14.833Zm156.84-10.621c-13.572-4.602-29.205-22.072-29.668-32.587.309-.131.624-.38.918-.371 10.202.269 17.943 5.001 23.935 12.836.506.653.811 1.482 1.115 2.272 2.103 5.597 2.706 11.469 3.7 17.85ZM382.846 390.65c-1.635-.423-3.341-.676-4.895-1.299-2.022-.814-2.573-2.188-1.674-4.101 2.027-4.299 4.113-8.581 6.299-12.807 1.3-2.501 3.263-2.724 5.378-.726 2.319 2.187 3.5 4.921 4.058 8.026.729 4.027-4.557 10.872-9.166 10.907Zm-28.428-143.339c4.288-8.875 18.327-14.615 28.743-11.249-.944 1.262-1.851 2.453-2.737 3.673-2.529 3.448-5.905 5.504-10.103 6.562-5.093 1.279-10.214.987-15.903 1.014Zm.65 195.029c1.069-4.451 2.546-8.759 4.212-12.995 1.307-3.333 4.806-3.949 7.457-1.517 5.191 4.75 4.732 11.086-1.12 14.897a19.861 19.861 0 0 1-2.691 1.485c-3.028 1.38-5.61.795-7.858-1.87Zm106.09 10.743c-4.481 1.632-8.479 1.219-12.299-1.238-2.583-1.663-3.563-4.01-3.162-6.923.408-2.982 1.668-5.492 4.63-6.8 3.445-1.534 7.637.395 8.487 3.973.841 3.588 1.536 7.221 2.344 10.988Zm-50.031 85.382c-.572-2.461.374-4.168 1.897-5.679 1.626-1.624 3.628-2.668 5.86-3.049 5.145-.906 10.305-.655 15.381.519 1.207.281 2.204.955 2.237 2.378-5.51 5.32-17.08 8.07-25.375 5.831Zm-94.803-34.695c-6.607-1.967-13.61-7.973-15.864-13.664-.617-1.549-.896-3.26-1.057-4.915-.083-.917.391-1.874.646-2.922 2.553-.215 4.131 1.071 5.624 2.419 4.872 4.386 8.283 9.815 11.245 15.548.582 1.136.516 2.275-.594 3.534Zm80.709-32.598c2.289-5.407 4.051-7.362 7.914-8.704 1.095-.378 2.351-.613 3.484-.478 5.006.603 8.96 4.796 9.771 10.482-7.029.393-13.937.059-21.169-1.3Zm46.37-90.664c.694 2.535 1.201 4.306 1.641 6.09.981 3.939 1.962 7.867 2.855 11.819.306 1.354-.764 2.373-2.038 2.164-7.236-1.241-10.216-5.639-8.745-12.726.465-2.252 1.492-4.15 3.192-5.658.693-.609 1.672-.933 3.095-1.689Zm-36.2-17.893c4.641.281 8.753.858 13.096 1.04-.14 2.033-1.267 3.114-2.545 3.835-1.133.636-2.553 1.223-3.802 1.142-3.413-.228-5.301-2.451-6.749-6.017Z" clip-rule="evenodd"/><path fill="#664E2B" fill-rule="evenodd" d="M394.149 420.853a11.625 11.625 0 0 0 3.245 7.285c3.817 3.95 8.51 5.623 14.004 5.139 3.608-.313 5.84-2.543 7.757-5.325 3.004-4.376 3.094-14.823-2.131-19.976-3.861-3.811-9.381-4.8-14.21-2.235-5.675 3.003-8.933 8.466-8.665 15.112Zm22.834-1.908c-.099 2.862-.509 5.537-2.479 7.669-.877.942-2.107 1.899-3.323 2.162-7.327 1.601-13.881-4.986-12.105-12.045.65-2.566 2.154-4.571 4.333-6.117 4.328-3.07 9.831-1.774 12.05 3.008.759 1.663 1.026 3.551 1.524 5.323ZM407.373 304.271l-1.557.059c-5.242.157-5.944 1.064-4.902 6.098.932 4.465 1.748 8.964 2.71 13.437 2.245 10.438 9.096 12.643 17.237 12.089 5.665-.381 9.719-2.927 12.615-7.595 2.775-4.466 3.788-9.399 4.106-14.524.111-1.745-.477-3.315-1.357-4.805-.858-1.441-2.006-1.972-3.768-2.113-6.159-.49-12.298-1.238-18.435-1.907-2.561-.28-5.112-.569-6.649-.739Zm25.131 9.132c.366 3.487-.429 6.622-1.711 9.578-2.627 6.082-5.836 8.933-14.224 8.131-4.095-.39-6.734-2.476-7.684-6.377-1.034-4.283-1.872-8.603-2.73-12.922-.156-.765-.04-1.581-.06-2.638 1.346.038 2.344-.009 3.33.122 4.78.601 9.529 1.411 14.322 1.824 2.952.245 5.747.743 8.757 2.282ZM376.563 265.258c.26 4.074 2.816 6.569 6.302 6.665 3.732.117 6.684-2.249 7.167-5.847.13-.984.062-2.03-.093-3.013-.519-3.392-1.898-5.101-4.385-5.512-3.129-.505-5.75.217-7.569 3.005-1.057 1.632-1.531 3.371-1.422 4.702ZM456.872 283.042c.171 4.563 3.404 7.596 7.941 7.465 4.527-.131 7.97-3.287 7.758-7.116-.238-4.264-4.351-8.262-8.379-8.17-3.656.098-7.457 4.147-7.32 7.821Z" clip-rule="evenodd"/><path fill="#86604F" fill-rule="evenodd" d="M200.224 416.875c-1.519.678-3.064 1.405-4.631 2.065-4 1.696-8.15.553-10.576-3.013-.798-1.17-1.33-2.533-1.937-3.826-.367-.776-.569-1.635-.954-2.395-.745-1.487-2.345-1.86-3.562-.818-.755.651-1.347 1.496-2.118 2.129-3.234 2.635-8.01 2.369-10.878-.666-2.681-2.831-3.924-6.335-3.978-10.194-.026-1.852.378-3.703.645-5.552.1-.708.491-1.389.502-2.085.001-.655-.135-1.537-.567-1.906-.424-.36-1.37-.437-1.938-.222-1.062.385-2.013 1.069-3.008 1.628-2.33 1.302-4.826 1.664-7.443 1.367-5.121-.575-7.753-3.428-7.611-8.582.042-1.694.537-3.386.87-5.069.11-.552.537-1.101.492-1.618-.048-.649-.302-1.404-.731-1.855-.289-.306-1.099-.313-1.584-.16-.657.204-1.213.732-1.842 1.059-2.277 1.182-4.481 2.587-6.867 3.469-6.88 2.527-12.372-1.24-12.741-8.69-.081-1.69.326-3.41.562-5.113.1-.7.533-1.404.47-2.07-.058-.616-.455-1.451-.941-1.699-.509-.249-1.338-.002-1.963.219-.337.118-.544.634-.808.968-2.807 3.56-6.709 5.236-10.884 6.434a5.85 5.85 0 0 1-.834.172c-5.801.849-9.773-2.368-10.063-8.3-.13-2.732.032-5.461.841-8.124.334-1.084.525-2.248.569-3.385.057-1.463-1.484-2.317-2.723-1.546-.84.524-1.542 1.283-2.382 1.816-1.805 1.142-3.587 2.342-5.497 3.268-1.984.963-4.137.847-6.285.379-3.235-.69-5.15-2.566-5.4-6.777-.242-4.055 1.34-7.589 3.869-10.701.681-.834 1.562-1.16 2.612-1.258 1.482-.148 2.788-.761 3.608-2.047.354-.552.62-1.328.538-1.945-.117-.963-1.015-1.456-1.874-1.465-.957-.012-2.025.127-2.87.553-1.513.76-2.922 1.115-4.435.156-1.773-1.133-3.01-2.688-3.27-4.819-.473-3.908.345-7.439 3.254-10.291 2.867-2.813 6.33-4.464 10.242-4.936 3.098-.379 6.243-.323 9.363-.448.569-.019 1.148.101 1.702.033 1.418-.167 2.448-1.412 1.882-2.728-.93-2.165-.195-3.971.71-5.755 2.39-4.739 5.932-8.451 10.48-11.092 1.327-.768 2.888-1.256 4.407-1.517 4.704-.825 7.211.435 9.615 4.565 2.7 4.649 3.212 4.825 7.346 1.57 3.397-2.678 7.164-4.006 11.446-4.177 3.144-.124 6.3-.338 9.369.428 1.904.475 3.841 1.148 5.522 2.154 2.593 1.55 4.082 3.966 4.015 7.149-.019.72-.162 1.468-.01 2.146.154.644.489 1.411.995 1.766.766.529 1.631.194 2.321-.443.21-.196.436-.376.615-.598 3.581-4.276 8.35-4.681 13.308-3.867 3.402.557 6.464 2.15 9.116 4.48 2.636 2.305 4.003 5.134 4.036 8.681.042 4.809.081 4.843 4.526 6.104 5.465 1.546 10.242 4.319 14.401 8.157 1.144 1.051 2.208 2.28 2.975 3.628 1.717 2.998 1.318 5.358-1.065 7.821-.499.513-1.114.915-1.589 1.437-1.169 1.273-1.04 2.76.344 3.682.831.556 1.756.952 2.63 1.445 2.636 1.469 5.101 3.186 7.165 5.403.974 1.037 1.937 2.147 2.628 3.378 1.632 2.896 1.512 5.791-.579 8.461-.708.898-1.519 1.719-2.274 2.582-1.605 1.855-1.789 3.878-.555 5.973.867 1.484 1.859 2.898 2.776 4.35.917 1.46 1.892 2.89 2.661 4.419.496 1.001.768 2.158.96 3.271.245 1.427-.343 2.575-1.687 3.154-1.172.511-2.397.914-3.62 1.293-1.092.334-2.241.478-3.303.879-2.568.958-3.378 3.023-2.136 5.528.504 1.018 1.214 1.938 1.892 2.865.755 1.045 1.626 2.012 2.364 3.064 2.799 3.982 2.728 6.887-.438 10.507-3.65 4.175-8.114 6.745-13.841 6.54-1.126-.043-2.281.248-3.396.123-.976-.152-1.891-.622-2.956-.966Z" clip-rule="evenodd"/><path fill="#CCA18F" fill-rule="evenodd" d="M76.736 357.895c5.143 1.894 9.939 1.244 14.91-1.847-.035 2.357-.046 3.888-.088 5.409-.078 2.651.425 5.168 1.715 7.478 1.706 3.063 4.204 4.97 7.728 5.515 3.508.546 6.809-.047 10.026-1.446 1.411-.609 2.813-1.21 4.521-1.938.247.951.416 1.605.578 2.258.281 1.108.464 2.262.861 3.333 2.545 6.765 7.644 9.787 15.381 7.974 1.784-.415 3.479-1.242 5.52-1.982.143.907.3 1.666.376 2.439.749 8.12 4.621 11.832 12.767 12 2.108.04 4.224-.337 6.495-.544.885 1.042.362 2.381.348 3.584-.041 3.577.985 6.844 2.743 9.852 1.712 2.924 4.01 5.158 7.429 6.11 3.05.846 5.912.695 8.711-.777.853-.451 1.707-.925 2.676-1.445.806 1.383 1.471 2.645 2.253 3.838 2.459 3.739 5.912 5.699 10.385 5.848a9.818 9.818 0 0 0 5.332-1.318c.979-.56 1.927-1.178 2.825-1.725 1.048.589.614 1.318.388 1.907-1.992 4.959-4.574 9.618-7.583 14.005-3.568 5.21-7.246 10.342-11.601 14.923-6.596 6.927-14 12.742-22.764 16.588-7.551 3.312-15.426 4.923-23.737 4.627-7.737-.275-15.352-1.192-22.887-2.9-8.452-1.924-16.056-5.624-23.248-10.538-7.28-4.973-12.748-11.458-17.322-18.841-5.276-8.508-7.546-18.006-8.137-27.889-.665-11.13.378-22.154 2.988-33.01 1.82-7.611 5.466-15.275 10.411-21.488Zm22.948 68.458a46.387 46.387 0 0 0 1.272 12.423c1.561 6.424 7.813 12.152 14.018 13.023 7.52 1.052 13.6-1.366 17.532-8.011 2.474-4.179 4.512-8.646 6.445-13.116 1.408-3.262.521-5.066-2.656-6.63-.891-.435-1.836-.767-2.79-1.066a495.268 495.268 0 0 0-8.179-2.47c-7.548-2.216-15.394-2.806-23.104-4.193-.451-.083-1.469.655-1.536 1.119-.439 2.956-.692 5.944-1.002 8.921Zm-2.913-29.554c-.046-.501-.091-1.215-.21-1.924-.32-1.978-1.273-3.571-3.195-4.234-2.161-.747-4.254-.345-6.015 1.159-2.265 1.935-3.19 6.977-1.774 9.587 1.052 1.949 2.695 2.888 4.933 2.705 3.385-.271 6.125-3.367 6.26-7.293Zm55.455 22.462c-.395 3.294 1.968 7.029 4.626 7.312 2.65.283 6.07-2.165 6.416-4.592.476-3.298-1.772-6.644-4.779-7.113-3.178-.491-5.904 1.418-6.263 4.393Z" clip-rule="evenodd"/><path fill="#FFE7A4" fill-rule="evenodd" d="M175.22 575.536c-2.552 2.022-8.705 5.052-11.404 5.619-2.282.477-3.553-.015-4.609-2.07-.725-1.396-1.3-2.884-1.802-4.385-.648-1.901-1.124-3.86-1.723-5.783-.787-2.528-1.276-2.891-3.93-3.059-.712-.044-1.43-.138-2.138-.083-6.333.549-12.48-.777-18.664-1.754-3.378-.54-6.777-.966-10.147-1.522-2.104-.343-4.224-.696-6.269-1.299-1.692-.499-2.987.04-3.848 1.743-.325.643-.538 1.339-.839 1.982-2.115 4.562-4.15 9.159-6.409 13.65-1.969 3.92-2.612 4.19-6.75 2.974-3.811-1.114-7.546-2.503-11.022-3.669-.857-1.532-.49-2.656-.06-3.704.708-1.725 1.56-3.396 2.371-5.084 1.916-4.021 3.832-8.042 5.764-12.053.802-1.665 1.677-3.293 2.623-5.124 2.874.373 5.528.771 8.202 1.063 15.477 1.695 30.982 2.909 46.506.676 4.201-.599 8.294-1.956 12.822-3.051.346.481 1.024 1.203 1.414 2.045 3.335 7.319 6.62 14.669 9.897 22.011.088.265.002.59.015.877Z" clip-rule="evenodd"/><path fill="#DDF4E4" fill-rule="evenodd" d="M94.66 530.361c-.002-4.791 1-9.518 1.841-14.277 2.186-.292 3.961.17 5.734.689 8.671 2.538 17.551 3.659 26.542 4.032 2.988.123 5.966.107 8.92-.556 4.174-.936 8.404-1.436 12.675-1.754 3.23-.236 6.415-1.005 9.64-1.544 1.342 2.64 3.341 11.16 3.644 15.701-10.91 3.968-22.164 4.646-33.6 3.32a2847.66 2847.66 0 0 1-28.826-3.506c-2.22-.266-4.572-.3-6.57-2.105Z" clip-rule="evenodd"/><path fill="#28E7B1" fill-rule="evenodd" d="M97.272 511.414c.28-4.1.97-8.111 1.842-12.188 6.758.843 13.099 1.547 19.416 2.438 6.253.88 12.471.99 18.709-.039.841-.139 1.691-.294 2.543-.311 5.536-.089 11.063-.153 16.793-.218 1.401 3.42 1.949 7.093 2.906 10.873-.692.473-1.299 1.08-2.04 1.354-2.133.818-4.332 1.258-6.643 1.43-3.823.278-7.688.563-11.426 1.36-4.949 1.054-9.859 1.109-14.85.753-8.842-.637-17.421-2.639-25.976-4.829-.394-.089-.741-.348-1.274-.623ZM93.15 546.943c-.103-4.287.12-7.971.821-11.826 1.975.322 3.763.661 5.571.895 8.201 1.07 16.39 2.247 24.615 3.114 5.946.631 11.94 1.075 17.924 1.151 5.992.076 11.94-.799 17.753-2.384 1.5-.409 2.954-.877 4.394-.764.216.279.374.383.386.506 1.15 8.439.407 8.156-6.403 10.538-2.804.981-5.786 1.537-8.739 1.947-9.934 1.369-19.903 1.147-29.889.507-7.405-.467-14.785-1.153-22.082-2.516-1.369-.266-2.706-.727-4.352-1.168Z" clip-rule="evenodd"/><path fill="#CCA18F" fill-rule="evenodd" d="M246.192 431.224c.875 1.696.425 3.063-.138 4.4-.392.927-.929 1.791-1.297 2.718-.342.855-.306 1.814.511 2.313.515.306 1.381.373 1.956.174 1.34-.464 2.579-1.227 3.904-1.741.775-.306 1.645-.37 2.357-.515 1.198.89.899 1.91.492 2.803-.728 1.627-2.014 2.772-3.555 3.606-.878.473-1.787.889-2.658 1.387-.788.453-1.416 1.174-1.143 2.085.171.605.73 1.265 1.287 1.54 1.147.561 2.435.807 3.608 1.319.997.44 2.134.828 2.417 2.116-.981 1.453-2.585 1.162-3.899 1.594-.937.3-1.969.35-2.89.683-1.16.422-1.57 1.782-.898 2.864.527.848 1.212 1.595 1.747 2.442.298.471.43 1.049.63 1.548-1.5 1.875-3.205 2.112-5.385 1.413-3.774-1.21-6.957-3.233-9.55-6.233-.28-.322-.6-.637-.789-1.013-3.18-6.281-6.304-12.568-5.262-19.997.267-1.881.766-3.655 1.721-5.281.347-.584.924-1.029 1.432-1.574 2.725 1.293 3.604 3.726 4.451 6.166.328.939.435 1.966.83 2.858.493 1.1 2.227 1.151 2.828.093.418-.737.621-1.589.951-2.371 1.261-3.03 2.848-4.41 6.342-5.397ZM21.407 397.015c3.218 1.124 6.548 3.963 8.535 7.332.434.737.71 1.567 1.127 2.32.448.796 1.116 1.345 2.088 1.187 1.02-.174 1.327-.965 1.355-1.889.017-.859-.12-1.733.002-2.571.422-3.161 3.366-5.652 6.57-5.651 1.095.002 2.026.685 2.008 1.781-.026 1.711.002 3.505-.505 5.099-1.09 3.406-2.491 6.717-3.82 10.04-.647 1.613-1.459 3.113-3.239 3.822-.84.336-1.059 1.171-1.28 2.071-1.343 5.345-6.299 9.322-11.733 9.505-.382.018-.778-.235-1.427-.456.282-.989.504-1.914.831-2.81.245-.67.762-1.256.91-1.93.138-.634.129-1.437-.15-1.996-.444-.885-1.394-.865-2.262-.661-.827.198-1.621.593-2.453.708-1.713.237-3.449.243-4.943-.781-.537-.373-1.262-1.121-1.187-1.593.117-.733.69-1.71 1.325-1.972 1.138-.464 2.475-.428 3.702-.7 1.121-.244 1.555-2.02.7-2.799-.407-.367-.95-.585-1.409-.898-.703-.477-1.449-.915-2.06-1.496-.75-.709-1.252-1.588-.771-2.691.481-1.12 1.23-2.049 2.512-2.024 1.264.024 2.538.237 3.767.538.812.196 1.564.675 2.32 1.073.866.467 1.664.392 2.339-.286.7-.702.586-1.509.164-2.361-1-2.045-2.024-4.091-2.891-6.204-.55-1.332-.434-1.377-.125-3.707Z" clip-rule="evenodd"/><path fill="#DDF4E4" fill-rule="evenodd" d="M154.264 488.271c1.259 2.694 1.113 5.432 1.676 8.27-.945.316-1.708.753-2.489.805-1.846.117-3.706-.029-5.551.056-4.259.204-8.519.44-12.773.742-3.832.278-7.645.704-11.504.219-5.789-.723-11.599-1.3-17.399-1.95-2.108-.237-4.205-.556-6.257-1.602-.031-2.982.772-5.71 1.221-8.715.804-.018 1.508-.196 2.118-.025 10.305 2.888 20.853 2.625 31.394 2.549 2.272-.01 4.549.045 6.803.296 2.706.301 5.378.437 8.068-.106 1.512-.31 3.064-.365 4.693-.539Z" clip-rule="evenodd"/><path fill="#28E7B1" fill-rule="evenodd" d="M153.502 484.057c-3.384 1.089-6.57 1.441-9.864 1.248-3.966-.235-7.947-.504-11.917-.42-7.413.148-14.801.099-22.115-1.256-2.48-.465-5.04-.768-7.463-2.303.521-3.199.38-6.488 1.967-9.768 15.295 4.113 30.658 6.271 46.515 3.404 1.355 2.918 2.108 5.912 2.877 9.095Z" clip-rule="evenodd"/><path fill="#CCA18F" fill-rule="evenodd" d="M59.43 393.252c-2.357-.729-3.521-2.724-4.554-4.753-1.78-3.509-2.622-7.309-2.828-11.215-.17-3.167.042-6.328.924-9.414.6-2.106 1.495-4.046 3.017-5.641 1.428-1.492 3.123-1.886 5.086-1.253 3.702 1.192 5.806 4.893 4.442 8.492-2.666 7.047-4.173 14.342-5.118 21.783a4.78 4.78 0 0 1-.34 1.24c-.099.258-.35.437-.63.761Z" clip-rule="evenodd"/><path fill="#28E7B1" fill-rule="evenodd" d="M38.653 594.717c.158-.936.224-1.809.46-2.636 1.343-4.738 3.467-9.12 6.157-13.225 1.052-1.605 2.566-2.169 4.385-2.213 1.413-.036 2.482.431 3.102 1.798.42.917.888 1.812 1.423 2.66.749 1.183.832 2.39.489 3.72-.355 1.395-.596 2.811-.918 4.215-1.045 4.586-3.67 8.039-7.447 10.694-1.684 1.171-3.438 1.439-5.234.461-1.812-.979-2.492-2.676-2.455-4.697.011-.287.03-.573.038-.777Z" clip-rule="evenodd"/><path fill="#CCA18F" fill-rule="evenodd" d="M194.155 441.889c2.237-3.705 4.153-6.702 5.88-9.813 1.665-2.982 3.123-6.078 4.704-9.194 2.556-.221 4.941.191 7.196 1.031 2.903 1.079 3.863 3.114 3.128 6.165-.194.82-.558 1.633-.984 2.37-1.071 1.899-2.496 3.506-4.288 4.739-4.458 3.063-9.43 4.492-15.636 4.702Z" clip-rule="evenodd"/><path fill="#28E7B1" fill-rule="evenodd" d="M211.834 587.196c1.676 1.563 3.225 3.032 4.8 4.485 2.357 2.188 3.403 4.931 3.255 8.11-.082 1.709-.254 3.447-.667 5.101-.23.909-.944 1.749-1.597 2.469-.678.752-1.975.734-2.709.01-.602-.588-1.201-1.267-1.537-2.017-2.129-4.734-3.478-9.708-4.098-14.874-.196-1.63.449-2.784 2.553-3.284Z" clip-rule="evenodd"/><path fill="#EBC6B6" fill-rule="evenodd" d="M84.296 399.911c-6.431-3.418-14.685-2.074-18.846 4.218-2.999 4.544-2.177 11.184.82 15.698 1.545 3.278 4.51 5.923 7.947 6.818 7.172 1.874 13.517-2.352 16.38-8.834 2.826-6.377-.324-14.729-6.301-17.9ZM180.949 431.943c-2.147-4.882-6.611-7.34-11.545-7.522-2.732-.458-5.607-.168-8.13.889-7.875 3.299-9.166 13.396-4.392 19.804 4.319 5.802 12.794 7.956 18.997 3.831 5.562-3.692 7.808-10.795 5.07-17.002Z" clip-rule="evenodd"/><path fill="#6B4434" fill-rule="evenodd" d="M69.045 362.587c1.56-2.585 2.886-4.786 4.117-6.818-.074-.405-.052-.567-.129-.669-3.635-5.439-2.75-10.9-.073-16.365.502-1.029 1.108-2.004 1.744-3.143-.785-.677-1.53-1.32-2.277-1.955-2.292-1.98-3.532-4.534-3.733-7.523-.304-4.499.867-8.565 4.022-11.907 4.5-4.773 10.196-6.69 16.55-6.952 1.552-.063 3.12.104 4.456.156.43-.393.776-.552.809-.771 1.108-6.632 4.971-11.503 9.848-15.728a26.7 26.7 0 0 1 3.099-2.304 17.37 17.37 0 0 1 8.893-2.777c3.997-.148 7.223 1.377 9.672 4.551.781 1.005 1.486 2.056 2.233 3.1.529-.258.948-.381 1.282-.63 8.227-6.111 17.33-5.947 26.581-3.493 3.991 1.055 7.043 3.728 8.739 7.708.224.517.488 1.018.683 1.427 1.062.647 1.734-.146 2.459-.445 8.106-3.397 18.428-.959 24.605 6.077 1.733 1.976 2.852 4.295 3.187 6.954.173 1.415.345 2.838.535 4.434 1.079.411 2.126.82 3.183 1.188 5.322 1.86 10.097 4.673 14.248 8.519 1.05.966 2.047 2.02 2.879 3.182 2.924 4.085 2.996 8.117.338 12.445-.225.368-.466.719-.845 1.294.731.593 1.418 1.3 2.235 1.79 2.6 1.574 4.918 3.498 6.857 5.801 1.273 1.507 2.447 3.231 3.163 5.06 1.446 3.733.892 7.364-1.537 10.603-.941 1.25-1.968 2.422-3.101 3.812.886 1.426 1.695 2.759 2.52 4.085 1.061 1.704 2.214 3.353 3.176 5.119a14.423 14.423 0 0 1 1.378 3.607c1.053 4.438-.359 7.176-4.579 8.913-1.179.487-2.461.708-3.693 1.094-.797.248-1.572.578-2.551.941.549.906.941 1.658 1.426 2.34.755 1.045 1.609 2.02 2.364 3.073 3.856 5.382 3.656 10.337-.625 15.314-1.792 2.085-3.856 3.839-6.268 5.171-.845.467-1.654 1.025-2.502 1.558.318.38.47.64.683.796 1.768 1.288 3.36 2.685 3.699 5.048.395 2.792.057 5.456-1.369 7.924-1.992 3.469-4.803 6.087-8.335 7.85-4.392 2.189-9.007 3.624-13.984 3.522-1.135-.02-2.268-.088-3.596-.139-.807.918-1.686 1.851-2.487 2.844-7.545 9.437-16.528 17.082-27.324 22.488-.24.121-.436.359-.889.751.569.399 1.028.9 1.58 1.085 10.698 3.64 21.53 4.01 32.467 1.239 10.167-2.571 19.786-6.499 28.737-12.041 1.837-1.133 3.579-2.351 5.023-4.433-.91-2.287-1.889-4.659-2.802-7.045-2.006-5.212-2.854-10.535-1.521-16.077.55-2.263 1.363-4.41 2.861-6.211 2.067-2.476 4.714-2.742 7.104-.561 1.34 1.223 2.433 2.731 3.747 4.223.955-.79 1.765-1.61 2.705-2.213 1.198-.756 2.438-1.576 3.767-1.959 3.109-.871 5.344.698 5.843 3.928.157.98.118 1.986.186 3.168 1.134.044 2.22.078 3.297.127 2.454.112 3.648 1.108 4.205 3.488.563 2.446-.224 4.553-1.637 6.472-.753 1.019-1.624 1.935-2.593 3.077.965.832 1.865 1.489 2.638 2.272 2.654 2.69 2.222 5.663-1.072 7.354-1.117.571-2.333.958-3.528 1.444.243 1.688.639 3.21.661 4.742.03 2.36-.625 2.949-2.75 3.768-4.966 1.92-9.241.035-13.365-2.425-1.815-1.086-3.414-2.556-5.265-3.979-1.588 1.2-3.09 2.509-4.753 3.542-12.177 7.555-25.235 12.734-39.494 14.549-9.253 1.182-18.186-.261-26.934-3.31-1.449-.506-2.897-1.029-4.762-1.691.024 1.066-.118 1.789.087 2.37 2.327 6.535 3.304 13.362 4.624 20.145 1.733 8.895 3.964 17.687 5.886 26.54 1.032 4.773 1.99 9.577 2.744 14.413.488 3.114.713 6.325-.646 9.36-.613 1.368.026 2.49.58 3.675 2.196 4.687 4.359 9.381 6.521 14.084a91.222 91.222 0 0 1 1.534 3.564c.858 2.138 1.737 4.178 3.682 5.678 1.473 1.138 1.138 2.894-.476 3.921-1.921 1.22-3.88 2.381-6.032 3.698.188 1.014.255 2 .568 2.913 1.064 3.128 2.028 6.318 3.38 9.319 1.114 2.459 2.496 4.887 4.176 6.983 3.336 4.15 7.961 4.746 12.104 1.442 5.19-4.147 9.503-9.099 11.868-15.518 1.288-3.513 5.605-4.812 8.385-2.436 2.168 1.853 4.223 3.881 6.161 5.987.95 1.028 1.711 2.327 2.237 3.633 1.755 4.334 1.527 8.764-.044 13.085-1.162 3.206-3.577 4.832-6.437 4.738-1.985-.068-3.651-.829-4.748-2.476-.866-1.303-1.639-2.717-2.174-4.187-.896-2.426-1.562-4.925-2.351-7.396-.246-.771-.566-1.512-.979-2.593-1.148 1.389-2.004 2.527-2.968 3.562-1.862 1.984-3.669 4.043-5.702 5.84-6.729 5.964-14.763 3.933-18.996-2.192a45.346 45.346 0 0 1-4.188-7.5c-1.327-3.016-2.242-6.212-3.355-9.326-.234-.64-.56-1.25-.926-2.059-1.511.482-2.835.947-4.172 1.329-4.816 1.378-8.013-.064-10.115-4.657-.77-1.693-1.292-3.506-1.897-5.266-.519-1.486-.996-2.986-1.534-4.612-1.016-.163-2-.52-2.944-.425-5.627.544-11.093-.765-16.579-1.542-4.648-.655-9.236-1.799-13.946-2.079-1.408-.087-2.789-.46-4.409-.736-.394.747-.811 1.46-1.164 2.191-2.256 4.646-4.37 9.38-6.802 13.938-2.492 4.669-3.998 5.209-9.034 4.122-.965-.21-1.94-.37-2.94-.548-1.131 1.144-1.285 2.612-1.71 3.955a30.78 30.78 0 0 1-4.205 8.452c-4.112 5.869-10.94 6.44-15.987 3.944-2.986-1.475-5.5-3.603-7.733-6.056-2.023-2.216-3.963-4.51-5.898-6.706-1.102-.018-1.117.792-1.257 1.458-1.233 5.669-4.574 9.831-9.232 13.016-2.841 1.946-5.862 2.231-8.868.46-2.96-1.736-4.438-4.405-4.344-7.874.033-1.293.1-2.617.424-3.849 1.46-5.463 3.878-10.488 6.973-15.216 1.845-2.812 4.328-4.075 7.61-3.801 1.545.125 3.08.299 4.381.423 1.775 3.189 3.393 6.044 4.944 8.93 2.55 4.733 5.972 8.78 9.864 12.411a22.166 22.166 0 0 0 4.506 3.253c4.443 2.383 8.686 1.327 11.707-2.749 2.447-3.296 3.713-7.079 4.613-11.254-.9-.452-1.74-.935-2.619-1.305-1.317-.551-2.697-.94-3.997-1.53-1.594-.725-2.467-2.061-2.148-3.826.33-1.822.815-3.654 1.474-5.381.721-1.872 1.73-3.626 2.604-5.443 2.348-4.921 4.688-9.851 7.124-14.949-.444-.467-.75-.93-1.17-1.224-1.303-.894-1.83-2.192-1.901-3.685a28.263 28.263 0 0 1 .07-3.888c.91-10.766 2.45-21.451 4.161-32.121 1.325-8.253 2.593-16.5 3.902-24.745.471-2.963.983-5.916 1.513-9.122-1.069-.279-1.846-.53-2.643-.692-3.235-.657-6.309-1.742-9.323-3.087-11.923-5.301-22.269-12.793-31.078-22.478-6.855-7.537-13.569-15.175-19.184-23.737-.069-.109-.221-.156-.356-.243-1.111-.207-1.441.771-1.864 1.418-2.476 3.835-6.294 5.227-10.476 5.958-.825.149-1.709.139-2.549.033-2.842-.348-3.971-1.562-4.216-4.455-.052-.558.035-1.128.068-1.962-1.149-.299-2.236-.521-3.268-.872-1.202-.407-2.478-.767-3.53-1.455-2.824-1.862-3.352-4.986-1.44-7.876.466-.703 1.066-1.319 1.687-2.073-1.641-2.659-2.033-5.344-.11-8.046 1.414-1.976 2.357-2.456 7.584-3.556-.188-.809-.465-1.614-.531-2.428-.137-1.708-.386-3.454-.19-5.142.295-2.617 2.057-3.712 4.609-2.975 1.203.35 2.396.961 3.43 1.689 1.407.972 2.659 2.166 3.98 3.266.636.532 1.272 1.073 2.01 1.691.899-.981 1.653-1.828 2.432-2.658 1.877-1.983 4.272-2.856 6.892-3.066 3.166-.255 5.436 1.676 5.96 4.898.399 2.48.029 4.923-.662 7.263-1.65 5.521-3.699 10.888-7.282 15.671.55 2.536 2.126 4.595 3.611 6.675 5.255 7.385 11.19 14.207 17.444 20.722 3.26 3.402 6.803 6.577 10.486 9.52 6.177 4.94 13.063 8.744 20.38 11.721 1.964.805 4.08 1.247 6.156 1.696 1.142.249 1.28.025 2.521-2.057-.8-.506-1.563-1.108-2.416-1.51a67.157 67.157 0 0 1-15.726-10.361c-8.175-7.196-14.375-15.952-17.946-26.409-3.061-8.946-4.287-18.174-3.93-27.627l.234-6.027c-7.962-3.698-10.111-10.832-11.115-18.438-.576-4.412-.441-8.951 1.064-13.25.656-1.875 1.492-3.767 2.634-5.385 3.296-4.688 9.073-5.357 13.482-1.674 1.029.884 1.96 1.976 3.28 3.305Zm131.179 54.29c1.065.352 1.98.821 2.941.924 1.115.125 2.262-.158 3.396-.123 5.727.214 10.191-2.357 13.841-6.54 3.166-3.62 3.237-6.516.439-10.506-.738-1.061-1.601-2.02-2.364-3.065-.67-.926-1.381-1.846-1.893-2.865-1.242-2.505-.432-4.57 2.136-5.527 1.062-.393 2.211-.537 3.304-.88 1.223-.379 2.439-.782 3.619-1.293 1.337-.579 1.932-1.719 1.688-3.153-.192-1.122-.456-2.27-.961-3.272-.76-1.537-1.743-2.967-2.66-4.419-.909-1.46-1.901-2.866-2.777-4.349-1.233-2.095-1.058-4.12.555-5.973.756-.864 1.566-1.676 2.274-2.582 2.092-2.679 2.211-5.565.579-8.462-.691-1.231-1.654-2.341-2.628-3.377-2.064-2.218-4.529-3.926-7.165-5.404-.874-.484-1.799-.889-2.629-1.445-1.384-.921-1.514-2.4-.345-3.682.483-.53 1.091-.924 1.589-1.437 2.383-2.463 2.783-4.823 1.065-7.821-.767-1.34-1.839-2.577-2.975-3.628-4.159-3.838-8.943-6.619-14.4-8.157-4.446-1.252-4.485-1.287-4.526-6.104-.025-3.547-1.4-6.376-4.037-8.681-2.652-2.33-5.714-3.922-9.116-4.48-4.957-.814-9.727-.409-13.307 3.867-.179.222-.413.402-.616.599-.681.637-1.554.971-2.321.442-.505-.347-.841-1.121-.994-1.766-.161-.678-.01-1.425.01-2.145.058-3.184-1.431-5.6-4.015-7.149-1.681-1.007-3.618-1.68-5.523-2.155-3.069-.765-6.225-.552-9.369-.427-4.282.17-8.049 1.498-11.446 4.176-4.133 3.255-4.645 3.071-7.346-1.57-2.404-4.13-4.91-5.39-9.615-4.565-1.519.269-3.079.749-4.407 1.517-4.547 2.641-8.09 6.353-10.48 11.093-.905 1.791-1.64 3.597-.71 5.754.567 1.316-.463 2.562-1.881 2.728-.563.068-1.134-.052-1.703-.033-3.128.125-6.273.069-9.362.449-3.905.479-7.375 2.122-10.242 4.935-2.91 2.852-3.727 6.383-3.254 10.291.25 2.131 1.488 3.694 3.27 4.819 1.512.959 2.929.613 4.435-.156.844-.426 1.912-.565 2.869-.553.86.009 1.757.511 1.874 1.465.073.625-.184 1.402-.538 1.945-.828 1.278-2.133 1.899-3.608 2.047-1.05.098-1.93.425-2.612 1.258-2.53 3.113-4.11 6.647-3.87 10.702.252 4.21 2.167 6.078 5.401 6.776 2.156.468 4.302.576 6.286-.379 1.91-.925 3.7-2.126 5.496-3.268.84-.533 1.543-1.292 2.383-1.816 1.238-.771 2.779.091 2.722 1.546a13.374 13.374 0 0 1-.569 3.385c-.808 2.663-.97 5.4-.841 8.124.29 5.941 4.254 9.149 10.063 8.3.285-.038.563-.093.834-.172 4.176-1.198 8.078-2.874 10.884-6.434.265-.334.471-.85.808-.968.625-.221 1.455-.476 1.964-.219.485.24.883 1.083.94 1.699.064.666-.369 1.37-.469 2.07-.237 1.703-.652 3.423-.563 5.113.369 7.45 5.861 11.217 12.741 8.69 2.386-.874 4.591-2.279 6.867-3.468.63-.328 1.185-.855 1.842-1.059.485-.154 1.288-.147 1.584.159.429.443.676 1.206.732 1.855.044.526-.382 1.066-.493 1.619-.333 1.682-.82 3.375-.869 5.068-.134 5.146 2.489 8.007 7.61 8.582 2.617.298 5.113-.065 7.443-1.367 1.003-.559 1.954-1.234 3.008-1.628.568-.207 1.514-.138 1.938.223.432.368.577 1.25.568 1.905-.003.696-.403 1.377-.503 2.085-.266 1.849-.67 3.701-.645 5.552.054 3.86 1.298 7.364 3.979 10.194 2.868 3.035 7.644 3.301 10.877.667.771-.634 1.363-1.479 2.119-2.13 1.224-1.041 2.816-.669 3.562.818.384.768.586 1.619.954 2.395.607 1.301 1.146 2.657 1.937 3.826 2.433 3.574 6.583 4.709 10.575 3.013 1.59-.626 3.135-1.345 4.646-2.023Zm-123.486-58.98c-4.945 6.213-8.592 13.876-10.42 21.487-2.61 10.857-3.652 21.88-2.988 33.011.592 9.883 2.861 19.38 8.138 27.888 4.574 7.383 10.042 13.86 17.321 18.842 7.192 4.921 14.797 8.622 23.249 10.538 7.535 1.716 15.149 2.624 22.886 2.899 8.312.297 16.178-1.315 23.737-4.626 8.772-3.846 16.169-9.661 22.764-16.588 4.363-4.581 8.042-9.721 11.602-14.923 3.009-4.388 5.59-9.046 7.583-14.006.233-.58.659-1.317-.389-1.906-.889.547-1.838 1.165-2.825 1.725a9.964 9.964 0 0 1-5.332 1.317c-4.472-.148-7.925-2.108-10.385-5.848-.781-1.193-1.446-2.455-2.253-3.837-.969.527-1.815.994-2.676 1.444-2.799 1.48-5.66 1.624-8.71.777-3.419-.951-5.718-3.186-7.43-6.11-1.765-3.016-2.783-6.282-2.742-9.851.013-1.195.536-2.535-.349-3.584-2.279.198-4.387.583-6.494.543-8.147-.168-12.019-3.872-12.768-12-.067-.772-.232-1.532-.376-2.438-2.041.748-3.735 1.567-5.52 1.981-7.736 1.814-12.835-1.217-15.381-7.973-.397-1.072-.579-2.218-.861-3.334-.169-.653-.339-1.307-.578-2.258-1.699.729-3.109 1.329-4.52 1.938-3.21 1.399-6.51 1.992-10.026 1.447-3.524-.546-6.022-2.46-7.729-5.516-1.29-2.31-1.792-4.835-1.715-7.477.043-1.53.053-3.053.088-5.41-4.963 3.092-9.758 3.742-14.901 1.848Zm98.482 217.64c-.005-.287.072-.611-.032-.845-3.278-7.341-6.563-14.691-9.898-22.01-.389-.851-1.067-1.565-1.414-2.045-4.52 1.095-8.62 2.451-12.822 3.05-15.523 2.225-31.028 1.02-46.506-.676-2.674-.292-5.336-.689-8.201-1.062-.939 1.831-1.813 3.459-2.624 5.123-1.94 4.012-3.847 8.033-5.763 12.053-.804 1.689-1.655 3.359-2.37 5.084-.43 1.048-.799 2.172.059 3.704 3.475 1.166 7.21 2.547 11.02 3.669 4.14 1.217 4.775.946 6.751-2.974 2.259-4.49 4.286-9.088 6.41-13.649.301-.652.514-1.34.839-1.982.869-1.703 2.155-2.243 3.848-1.743 2.045.595 4.165.955 6.269 1.299 3.369.556 6.768.982 10.146 1.522 6.185.984 12.34 2.303 18.664 1.753.708-.062 1.427.031 2.139.083 2.662.168 3.151.531 3.929 3.059.599 1.923 1.083 3.883 1.724 5.783.502 1.494 1.077 2.99 1.802 4.385 1.056 2.056 2.327 2.547 4.608 2.07 2.709-.599 8.87-3.628 11.422-5.651Zm-80.561-45.175c2.006 1.805 4.35 1.839 6.57 2.121a2874.817 2874.817 0 0 0 28.825 3.506c11.436 1.326 22.682.647 33.6-3.32-.303-4.54-2.309-13.069-3.643-15.701-3.234.539-6.419 1.308-9.641 1.544-4.271.31-8.501.818-12.674 1.754-2.955.664-5.932.671-8.921.556-8.99-.381-17.871-1.494-26.542-4.032-1.773-.519-3.548-.981-5.733-.688-.84 4.741-1.843 9.469-1.841 14.26Zm2.614-18.948c.541.275.888.534 1.274.631 8.547 2.189 17.134 4.184 25.976 4.829 4.991.365 9.901.309 14.85-.753 3.738-.797 7.603-1.082 11.426-1.36 2.311-.172 4.51-.611 6.643-1.43.733-.283 1.348-.889 2.04-1.354-.958-3.78-1.497-7.453-2.906-10.873-5.73.073-11.257.13-16.793.219-.853.016-1.702.163-2.543.311-6.238 1.028-12.464.91-18.709.038-6.317-.891-12.658-1.595-19.416-2.438-.871 4.069-1.562 8.088-1.842 12.18Zm-4.123 35.53c1.637.44 2.982.902 4.36 1.16 7.296 1.371 14.677 2.049 22.082 2.516 9.977.64 19.955.862 29.889-.507 2.952-.41 5.935-.966 8.739-1.947 6.809-2.382 7.553-2.099 6.403-10.538-.012-.123-.162-.227-.386-.506-1.44-.113-2.902.355-4.394.764-5.813 1.585-11.761 2.469-17.753 2.384-5.984-.075-11.97-.52-17.925-1.151-8.224-.867-16.413-2.043-24.614-3.114-1.808-.234-3.596-.573-5.57-.895-.702 3.863-.925 7.548-.831 11.834Zm153.044-115.719c-3.494.986-5.089 2.366-6.333 5.381-.331.781-.534 1.642-.952 2.371-.6 1.049-2.327 1.007-2.828-.093-.395-.9-.509-1.92-.83-2.858-.847-2.432-1.718-4.873-4.451-6.166-.516.545-1.093.989-1.432 1.574-.954 1.617-1.461 3.391-1.721 5.281-1.042 7.437 2.082 13.716 5.263 19.997.188.376.508.691.788 1.014 2.594 2.999 5.777 5.014 9.551 6.232 2.179.699 3.884.47 5.384-1.413-.2-.499-.331-1.077-.63-1.548-.535-.847-1.22-1.595-1.747-2.442-.672-1.082-.262-2.451.898-2.864.93-.333 1.954-.383 2.89-.683 1.306-.424 2.91-.133 3.899-1.594-.283-1.288-1.42-1.676-2.417-2.116-1.173-.512-2.461-.758-3.608-1.319-.557-.275-1.115-.935-1.287-1.54-.272-.919.356-1.64 1.144-2.085.871-.498 1.779-.914 2.657-1.388 1.55-.832 2.827-1.979 3.555-3.605.4-.893.707-1.913-.492-2.803-.711.144-1.582.217-2.356.515-1.326.514-2.564 1.277-3.905 1.741-.575.199-1.441.132-1.956-.174-.816-.499-.86-1.458-.511-2.313.368-.928.905-1.791 1.298-2.718.562-1.321 1.012-2.688.129-4.384ZM21.408 397.016c-.317 2.321-.433 2.374.117 3.689.876 2.106 1.892 4.152 2.892 6.205.42.852.536 1.659-.165 2.361-.675.67-1.473.745-2.34.286-.754-.398-1.507-.877-2.318-1.073-1.23-.301-2.512-.514-3.768-.538-1.28-.025-2.03.904-2.512 2.024-.48 1.103.02 1.982.772 2.691.61.58 1.356 1.019 2.06 1.496.466.313 1.01.531 1.409.898.854.779.42 2.555-.7 2.799-1.228.272-2.565.228-3.703.7-.626.254-1.207 1.239-1.325 1.971-.075.464.65 1.221 1.188 1.594 1.493 1.024 3.23 1.026 4.942.781.832-.115 1.626-.51 2.453-.708.86-.204 1.818-.224 2.262.661.279.559.288 1.362.15 1.996-.147.674-.665 1.268-.91 1.93-.326.888-.54 1.822-.83 2.81.648.213 1.044.466 1.426.456 5.434-.183 10.39-4.168 11.733-9.505.23-.892.44-1.735 1.28-2.071 1.78-.709 2.585-2.21 3.24-3.822 1.328-3.323 2.722-6.635 3.819-10.04.508-1.594.48-3.388.505-5.099.018-1.097-.913-1.78-2.008-1.781-3.204-.001-6.14 2.49-6.57 5.651-.114.839.023 1.712-.002 2.571-.02.933-.334 1.715-1.355 1.888-.971.159-1.64-.391-2.088-1.186-.425-.745-.693-1.574-1.127-2.32-1.98-3.352-5.301-6.183-8.527-7.315Zm132.857 91.256c-1.621.175-3.173.229-4.677.54-2.698.542-5.362.406-8.068.105-2.254-.251-4.539-.306-6.803-.295-10.541.075-21.089.347-31.394-2.549-.61-.171-1.314.006-2.118.024-.449 3.005-1.252 5.734-1.221 8.716 2.052 1.054 4.141 1.364 6.257 1.601 5.8.65 11.61 1.227 17.399 1.95 3.859.477 7.672.051 11.504-.218 4.254-.302 8.514-.539 12.773-.743 1.845-.092 3.705.053 5.551-.055.78-.044 1.536-.482 2.489-.805-.58-2.84-.433-5.577-1.692-8.271Zm-.762-4.214c-.769-3.183-1.521-6.177-2.877-9.104-15.857 2.868-31.219.71-46.514-3.403-1.579 3.28-1.439 6.569-1.968 9.767 2.431 1.536 4.983 1.847 7.464 2.304 7.313 1.363 14.702 1.403 22.114 1.256 3.97-.076 7.951.184 11.917.42 3.302.201 6.488-.151 9.864-1.24ZM59.43 393.253c.28-.325.531-.512.638-.754.17-.394.283-.816.34-1.239.944-7.441 2.452-14.737 5.117-21.783 1.365-3.608-.748-7.309-4.442-8.492-1.963-.633-3.657-.24-5.086 1.253-1.522 1.595-2.416 3.543-3.017 5.64-.881 3.078-1.093 6.248-.923 9.415.206 3.906 1.048 7.706 2.827 11.214 1.025 2.022 2.19 4.016 4.546 4.746ZM38.653 594.719c-.008.204-.027.49-.03.777-.046 2.021.635 3.709 2.455 4.697 1.795.978 3.55.71 5.234-.461 3.778-2.655 6.402-6.108 7.447-10.694.322-1.404.555-2.82.917-4.215.344-1.33.26-2.537-.489-3.72a22.475 22.475 0 0 1-1.422-2.66c-.629-1.359-1.69-1.826-3.102-1.798-1.819.036-3.334.608-4.385 2.213-2.69 4.106-4.815 8.487-6.158 13.225-.243.826-.31 1.7-.467 2.636ZM194.154 441.89c6.206-.211 11.169-1.632 15.644-4.71 1.792-1.233 3.209-2.841 4.288-4.74.418-.737.782-1.55.984-2.37.735-3.059-.224-5.094-3.128-6.164-2.255-.841-4.633-1.244-7.196-1.032-1.581 3.116-3.039 6.213-4.704 9.195-1.726 3.111-3.652 6.116-5.888 9.821Zm17.681 145.308c-2.104.5-2.749 1.654-2.561 3.283.612 5.166 1.969 10.141 4.098 14.875.335.758.934 1.428 1.536 2.016.735.725 2.04.742 2.71-.01.653-.728 1.375-1.568 1.596-2.468.413-1.655.586-3.393.668-5.101.155-3.18-.89-5.923-3.256-8.111a803.082 803.082 0 0 1-4.791-4.484Z" clip-rule="evenodd"/><path fill="#6B4434" fill-rule="evenodd" d="M99.686 426.353c.318-2.977.571-5.965 1.01-8.929.067-.464 1.085-1.203 1.536-1.12 7.702 1.396 15.548 1.986 23.104 4.194 2.736.802 5.462 1.62 8.179 2.47.946.299 1.899.63 2.79 1.066 3.169 1.556 4.064 3.367 2.656 6.63-1.941 4.47-3.971 8.936-6.445 13.116-3.932 6.645-10.013 9.071-17.532 8.011-6.205-.871-12.458-6.591-14.018-13.023a45.585 45.585 0 0 1-1.28-12.415Zm35.872 1.681c-.73-.405-1.305-.844-1.954-1.066-8.926-3.097-18.068-5.203-27.467-6.123-1.398-.136-2.126.425-2.274 1.943-.461 4.593-.476 9.17.402 13.741 1.012 5.288 4.183 8.695 8.853 10.841 3.811 1.744 10.854 1.492 14.757-3.573.957-1.241 1.931-2.514 2.65-3.911 1.64-3.187 3.153-6.446 4.658-9.704.283-.603.248-1.358.375-2.148Z" clip-rule="evenodd"/><path fill="#FFF2E1" fill-rule="evenodd" d="M135.558 428.035c-.128.79-.092 1.544-.375 2.148-1.505 3.258-3.018 6.508-4.659 9.704-.719 1.389-1.693 2.662-2.649 3.911-3.904 5.065-10.955 5.325-14.757 3.573-4.671-2.146-7.841-5.553-8.853-10.841-.878-4.571-.863-9.148-.402-13.741.156-1.517.875-2.079 2.274-1.943 9.399.92 18.541 3.026 27.467 6.123.648.23 1.223.661 1.954 1.066Z" clip-rule="evenodd"/><path fill="#6B4434" fill-rule="evenodd" d="M96.771 396.8c-.136 3.925-2.875 7.013-6.253 7.292-2.238.184-3.88-.756-4.933-2.705-1.416-2.609-.49-7.651 1.774-9.586 1.762-1.513 3.855-1.915 6.016-1.16 1.921.664 2.882 2.257 3.195 4.235.102.708.147 1.43.201 1.924ZM152.227 419.262c.358-2.975 3.085-4.884 6.262-4.393 3.008.468 5.255 3.815 4.779 7.113-.345 2.427-3.774 4.866-6.416 4.592-2.658-.275-5.028-4.019-4.625-7.312Z" clip-rule="evenodd"/></svg>