<svg xmlns="http://www.w3.org/2000/svg" width="64" height="72" fill="none"><path fill="#FFD666" d="M64 18.271v25.423c0 10.09-8.444 18.271-18.858 18.271h-1.907l-9.74 9.431c-.382.37-.91.604-1.495.604a2.15 2.15 0 0 1-1.405-.511l-.165-.16-.007-.007-9.658-9.357h-1.913C8.443 61.965 0 53.785 0 43.694V18.271C0 8.181 8.443 0 18.858 0h26.284C55.556 0 64 8.18 64 18.271Z"/><path fill="#fff" d="M14.27 35.219c-1.857 0-2.915 2.05-1.838 3.53 4.188 5.765 11.114 9.524 18.94 9.524 7.825 0 14.745-3.765 18.933-9.524 1.077-1.48.019-3.53-1.838-3.53H14.27ZM25.143 26.494H13.94V21.02c0-3.022 2.51-5.475 5.602-5.475 3.092 0 5.601 2.453 5.601 5.475v5.474ZM48.803 26.494H37.6V21.02c0-3.022 2.51-5.475 5.602-5.475 3.092 0 5.601 2.453 5.601 5.475v5.474Z"/></svg>