<svg xmlns="http://www.w3.org/2000/svg" width="240" height="74" fill="none"><path fill="#fff" fill-rule="evenodd" d="M105.488 22.786c-2.32 0-5.074.492-8.082 3.98v-9.76a4.472 4.472 0 0 0-4.462-4.473 4.472 4.472 0 0 0-4.461 4.472v31.832a4.472 4.472 0 0 0 4.461 4.472 4.472 4.472 0 0 0 4.462-4.471V36.483c0-3.552 1.683-5.513 4.748-5.513 3.002 0 4.583 1.903 4.583 5.513v12.355a4.471 4.471 0 0 0 4.462 4.471 4.471 4.471 0 0 0 4.461-4.471V33.889c-.006-6.95-3.805-11.103-10.172-11.103Zm25.623.218c-3.633 0-6.514.472-9.338 1.533a3.784 3.784 0 0 0-2.447 3.526c0 2.083 1.651 3.712 3.76 3.712.434 0 .797-.064 1.294-.23 1.715-.537 3.525-.792 5.545-.792 4.793 0 5.813 2.65 5.826 4.893-1.664-.543-3.761-1.041-6.686-1.041-7.623 0-11.996 3.494-11.996 9.595v.108c0 5.513 4.131 9.219 10.275 9.219 3.461 0 6.234-1.055 8.445-3.214.376 1.578 1.887 3.003 4.207 3.003 2.441 0 4.353-1.891 4.353-4.306V35.831c0-4.146-1.083-7.34-3.231-9.486-2.218-2.217-5.584-3.341-10.007-3.341Zm-1.294 24.115c-2.53 0-4.098-1.2-4.098-3.136v-.109c0-2.306 1.925-3.622 5.284-3.622 1.72 0 3.435.338 4.856.952v1.22c0 2.76-2.485 4.695-6.042 4.695Zm26.489-20.276c2.307-2.727 5.15-4.056 8.668-4.056 6.712 0 13.5 5.257 13.5 15.312v.109c0 4.631-1.421 8.554-4.105 11.352-2.454 2.561-5.787 3.967-9.395 3.967-3.473 0-6.233-1.188-8.623-3.718v7.666a4.472 4.472 0 0 1-4.462 4.471 4.472 4.472 0 0 1-4.462-4.471v-30a4.472 4.472 0 0 1 4.462-4.471 4.47 4.47 0 0 1 4.417 3.84ZM169.557 38.1c0-4.337-2.874-7.614-6.686-7.614-3.837 0-6.629 3.2-6.629 7.614v.109c0 4.414 2.786 7.615 6.629 7.615 3.875 0 6.686-3.2 6.686-7.615v-.109Zm28.523-15.312c-3.519 0-6.361 1.329-8.669 4.056a4.47 4.47 0 0 0-4.417-3.84 4.471 4.471 0 0 0-4.461 4.473v29.999a4.471 4.471 0 0 0 4.461 4.471 4.471 4.471 0 0 0 4.462-4.471v-7.666c2.39 2.53 5.15 3.718 8.624 3.718 3.607 0 6.941-1.406 9.395-3.967 2.683-2.798 4.104-6.72 4.104-11.352v-.109c0-10.055-6.788-15.312-13.499-15.312Zm-2.104 7.698c3.812 0 6.686 3.277 6.686 7.614v.109c0 4.414-2.81 7.615-6.686 7.615-3.843 0-6.628-3.2-6.628-7.615v-.109c0-4.414 2.791-7.614 6.628-7.614Zm35.509-4.108c.828-2.21 2.307-3.373 4.276-3.373 2.378 0 4.245 1.82 4.239 4.133 0 .67-.217 1.642-.408 2.089L229.528 53.45c-2.53 6.139-5.169 8.317-10.083 8.317-1.734 0-3.066-.23-4.596-.779-1.052-.383-2.823-1.38-2.823-3.743 0-2.326 1.829-3.712 3.594-3.712.701 0 1.122.121 1.46.236.695.218 1.077.307 1.606.307 1.339 0 1.9-.217 2.575-1.514l.204-.485-9.79-22.736c-.223-.562-.459-1.431-.459-2.038 0-2.453 1.893-4.306 4.404-4.306 2.072 0 3.474 1.086 4.277 3.322l5.896 15.888 5.692-15.83Z" clip-rule="evenodd"/><path fill="#FFD666" d="M63.974 18.779v26.129c0 10.37-8.44 18.778-18.85 18.778h-1.907l-9.736 9.693c-.382.38-.91.621-1.494.621-.54 0-1.03-.196-1.405-.525l-.165-.165-.006-.006-9.654-9.618h-1.913C8.44 63.686 0 55.278 0 44.908v-26.13C0 8.409 8.44 0 18.85 0h26.274c10.41 0 18.85 8.408 18.85 18.779Z"/><path fill="#fff" d="M14.895 36.197c-1.856 0-2.914 2.107-1.837 3.628a23.132 23.132 0 0 0 18.932 9.788c7.822 0 14.739-3.87 18.926-9.788 1.076-1.521.019-3.628-1.837-3.628H14.895ZM25.764 27.23H14.566v-5.626c0-3.106 2.508-5.627 5.599-5.627 3.09 0 5.599 2.52 5.599 5.627v5.626ZM49.415 27.23H38.217v-5.626c0-3.106 2.508-5.627 5.599-5.627 3.09 0 5.599 2.52 5.599 5.627v5.626Z"/></svg>